<svg width="110" height="21" fill="none" xmlns="http://www.w3.org/2000/svg"><path d="M10.64 10.568c.928.368 1.656.896 2.184 1.584.528.688.792 1.504.792 2.448 0 1.056-.28 1.992-.84 2.808-.56.816-1.336 1.456-2.328 1.92-.976.448-2.072.672-3.288.672H.44l.24-3.6V5.48L.44 2h6.744c1.088 0 2.032.224 2.832.672a4.438 4.438 0 0 1 1.872 1.848c.432.784.648 1.696.648 2.736 0 .72-.168 1.36-.504 1.92-.32.56-.784 1.024-1.392 1.392ZM4.136 5.312V9.08h2.28c.88 0 1.52-.144 1.92-.432.4-.304.6-.768.6-1.392 0-.656-.2-1.144-.6-1.464-.4-.32-1.024-.48-1.872-.48H4.136ZM7.16 16.688c.912 0 1.616-.184 2.112-.552.496-.368.744-.88.744-1.536 0-.704-.24-1.248-.72-1.632-.464-.384-1.16-.576-2.088-.576H4.136v4.296H7.16Zm14.366 3.696c-2.16 0-3.736-.64-4.728-1.92-.976-1.28-1.464-3.176-1.464-5.688 0-2.512.488-4.4 1.464-5.664.992-1.264 2.568-1.896 4.728-1.896 2.16 0 3.728.632 4.704 1.896.992 1.264 1.488 3.152 1.488 5.664 0 2.512-.496 4.408-1.488 5.688-.976 1.28-2.544 1.92-4.704 1.92Zm0-3.312c.752 0 1.32-.12 1.704-.36.384-.256.648-.68.792-1.272.16-.608.24-1.488.24-2.64 0-1.152-.08-2.024-.24-2.616-.144-.608-.408-1.032-.792-1.272-.384-.256-.952-.384-1.704-.384s-1.32.128-1.704.384c-.384.24-.656.664-.816 1.272-.144.592-.216 1.464-.216 2.616 0 1.152.072 2.032.216 2.64.16.592.432 1.016.816 1.272.384.24.952.36 1.704.36Zm7.914-1.08c0-.912.216-1.736.648-2.472a5.037 5.037 0 0 1 1.752-1.776 4.614 4.614 0 0 1 2.376-.648c1.472 0 2.616.216 3.432.648v-1.272c0-.608-.248-1.08-.744-1.416-.48-.336-1.16-.504-2.04-.504-.944 0-1.784.152-2.52.456-.72.304-1.272.76-1.656 1.368l-.264-.048.432-3.552c.544-.48 1.216-.848 2.016-1.104a7.772 7.772 0 0 1 2.472-.408c1.728 0 3.104.408 4.128 1.224 1.024.816 1.536 1.928 1.536 3.336v6.6l.24 3.576H37.72l-.072-1.32c-.32.512-.824.928-1.512 1.248-.672.304-1.416.456-2.232.456-1.36 0-2.448-.392-3.264-1.176-.8-.784-1.2-1.856-1.2-3.216Zm3.456-.216c0 .544.136.968.408 1.272.288.288.704.432 1.248.432.592 0 1.152-.112 1.68-.336a4.242 4.242 0 0 0 1.416-1.008v-1.632c-.896-.432-1.904-.648-3.024-.648-.592 0-1.032.16-1.32.48-.272.32-.408.8-.408 1.44Zm15.822 4.464c-1.088 0-1.984-.144-2.688-.432-.688-.304-1.384-.816-2.088-1.536l-.456-3.024.336-.096A7.032 7.032 0 0 0 45.91 16.4a6.465 6.465 0 0 0 2.352.456c.784 0 1.328-.072 1.632-.216.32-.16.48-.432.48-.816 0-.352-.2-.648-.6-.888-.384-.24-1.064-.504-2.04-.792-.992-.288-1.768-.608-2.328-.96-.56-.352-.968-.792-1.224-1.32-.256-.544-.384-1.224-.384-2.04 0-1.456.432-2.576 1.296-3.36.88-.784 2.12-1.176 3.72-1.176.976 0 1.832.128 2.568.384.752.24 1.424.624 2.016 1.152l-.528 3.024-.36.096c-.256-.416-.72-.744-1.392-.984a5.759 5.759 0 0 0-1.992-.36c-1.248 0-1.872.352-1.872 1.056 0 .4.168.712.504.936.352.224 1.024.472 2.016.744 1.408.384 2.432.92 3.072 1.608.656.672.984 1.584.984 2.736 0 1.472-.448 2.6-1.344 3.384-.896.784-2.152 1.176-3.768 1.176Zm6.996-4.248c0-.912.216-1.736.648-2.472a5.037 5.037 0 0 1 1.752-1.776 4.614 4.614 0 0 1 2.376-.648c1.472 0 2.616.216 3.432.648v-1.272c0-.608-.248-1.08-.744-1.416-.48-.336-1.16-.504-2.04-.504-.944 0-1.784.152-2.52.456-.72.304-1.272.76-1.656 1.368l-.264-.048.432-3.552c.544-.48 1.216-.848 2.016-1.104a7.772 7.772 0 0 1 2.472-.408c1.728 0 3.104.408 4.128 1.224 1.024.816 1.536 1.928 1.536 3.336v6.6l.24 3.576h-3.528l-.072-1.32c-.32.512-.824.928-1.512 1.248-.672.304-1.416.456-2.232.456-1.36 0-2.448-.392-3.264-1.176-.8-.784-1.2-1.856-1.2-3.216Zm3.456-.216c0 .544.136.968.408 1.272.288.288.704.432 1.248.432.592 0 1.152-.112 1.68-.336a4.242 4.242 0 0 0 1.416-1.008v-1.632c-.896-.432-1.904-.648-3.024-.648-.592 0-1.032.16-1.32.48-.272.32-.408.8-.408 1.44Zm21.822.648.24 3.576h-3.528l-.096-1.704c-.896 1.328-2.2 1.992-3.912 1.992-1.136 0-2.024-.368-2.664-1.104-.64-.752-.96-1.808-.96-3.168V9.2l-.24-3.6h3.84l-.24 3.6v6.168c0 .56.152 1.008.456 1.344.304.336.696.504 1.176.504.944 0 1.8-.584 2.568-1.752V9.2l-.24-3.6h3.84l-.24 3.6v7.224Zm14.163 0 .24 3.576h-3.528l-.072-1.296c-.304.432-.76.792-1.368 1.08-.592.272-1.16.408-1.704.408-1.68 0-2.976-.632-3.888-1.896-.896-1.28-1.344-3.12-1.344-5.52 0-2.544.416-4.424 1.248-5.64.848-1.216 2.096-1.824 3.744-1.824a7.6 7.6 0 0 1 1.848.216c.576.144 1.064.344 1.464.6V4.28L91.555.8h3.84l-.24 3.48v12.144Zm-3.36-7.488c-.528-.208-1.312-.312-2.352-.312-.672 0-1.184.112-1.536.336-.352.224-.6.632-.744 1.224-.144.576-.216 1.44-.216 2.592 0 1.104.064 1.952.192 2.544.144.592.376 1.016.696 1.272.32.24.776.36 1.368.36.448 0 .92-.064 1.416-.192.512-.144.904-.312 1.176-.504v-7.32Zm12.044 11.352c-2.144 0-3.712-.632-4.704-1.896-.992-1.264-1.488-3.136-1.488-5.616 0-2.416.52-4.28 1.56-5.592 1.056-1.312 2.6-1.968 4.632-1.968 2 0 3.48.504 4.44 1.512.976 1.008 1.544 2.6 1.704 4.776l-.648 2.52h-8.184c.064.784.216 1.384.456 1.8.24.416.584.704 1.032.864.464.16 1.104.24 1.92.24 1.072 0 2.024-.096 2.856-.288.848-.192 1.424-.44 1.728-.744l.408.216-.744 2.928a5.317 5.317 0 0 1-2.064.96c-.768.192-1.736.288-2.904.288Zm2.736-8.784c0-1.008-.216-1.752-.648-2.232-.432-.496-1.096-.744-1.992-.744-.944 0-1.632.224-2.064.672-.416.432-.664 1.2-.744 2.304h5.448Z" fill="#000B5E"/></svg>