<svg width="173" height="115" fill="none" xmlns="http://www.w3.org/2000/svg"><g clip-path="url(#undraw_booking_re_gw4j 1__a)"><path d="M166.238 76.96c-1.249 1.37-2.799 2.39-4.48 3.182h-.002a14.32 14.32 0 0 1-.476.218h-.002l-.002.002-.002-.002h-.003v.001h-.004l-.002-.001c-.002.002-.002.002-.004 0l-.002.002-.002-.002h-.002c-.002.002-.002.002-.004 0h-.002a28.296 28.296 0 0 1-3.459 1.241 47.819 47.819 0 0 1-21.315 1.118l-.406-.074V66.136a43.357 43.357 0 0 1 3.097-1.185 43.028 43.028 0 0 1 3.972-1.151 42.87 42.87 0 0 1 13.392-1.087c.818.06 1.633.149 2.446.264 1.701.238 3.486.654 5.055 1.374h.002c.23.108.455.22.678.34 1.395.76 2.571 1.803 3.289 3.234a6.27 6.27 0 0 1 .552 1.627v.004c.04.195.068.392.091.588.255 2.41-.74 4.989-2.405 6.816Z" fill="#F2F2F2"/><path d="M168.643 70.144a.27.27 0 0 1-.061.008 246.1 246.1 0 0 0-10.407.68h-.006l-.041.004c-3.556.31-7.106.697-10.648 1.162l-.446.06c-2.45.327-4.895.69-7.335 1.09-1.077.177-2.151.362-3.224.554-.136.024-.27.047-.406.073v-.617c.136-.026.272-.049.406-.073 3.573-.635 7.158-1.19 10.756-1.663a239.59 239.59 0 0 1 10.589-1.168l.576-.049c3.364-.287 6.733-.505 10.107-.653a.163.163 0 0 1 .049.004c.324.028.393.517.091.588Z" fill="#fff"/><path d="M161.429 79.76c-4.327.032-8.591-1.81-11.652-4.859a15.893 15.893 0 0 1-2.268-2.863c-.206-.332-.688.034-.484.363 2.377 3.827 6.337 6.553 10.703 7.555 1.24.282 2.508.418 3.779.406.388-.003.308-.605-.078-.602ZM143.138 63.8a.337.337 0 0 1-.253.23c-.992.26-1.95.636-2.855 1.12a13.871 13.871 0 0 0-3.713 2.863c-.085.09-.167.181-.248.275V67.4a14.575 14.575 0 0 1 3.097-2.449 43.09 43.09 0 0 1 3.972-1.151Zm21.252.39a14.092 14.092 0 0 0-6.575 5.819.306.306 0 0 0 .161.398.308.308 0 0 0 .396-.162 13.415 13.415 0 0 1 6.245-5.492c.358-.153.132-.716-.227-.562Z" fill="#fff"/><path d="M172.688 46.904c-.47 1.795-1.372 3.421-2.494 4.905l-.002.002a9.744 9.744 0 0 1-.322.413v.002a28.421 28.421 0 0 1-2.517 2.726 47.339 47.339 0 0 1-10.823 7.76c-6.219 3.261-13.17 5.189-20.055 5.299-.053.002-.106.002-.158.002-.083.002-.167.002-.248.002v-9.251a44.681 44.681 0 0 1 7.088-9.874 42.97 42.97 0 0 1 2.985-2.872 42.706 42.706 0 0 1 13.645-8.11c1.616-.583 3.389-1.049 5.112-1.14.254-.015.505-.02.759-.019 1.588.023 3.111.399 4.41 1.331a6.31 6.31 0 0 1 1.594 1.665v.002c1.343 2.015 1.655 4.761 1.026 7.157Z" fill="#F2F2F2"/><path d="M171.662 39.745v.002a.31.31 0 0 1-.048.035 244.238 244.238 0 0 0-8.891 5.449l-.01.006a245.701 245.701 0 0 0-26.238 19.44c-.136.114-.27.23-.406.346v-.792a238.395 238.395 0 0 1 5.794-4.775 244.613 244.613 0 0 1 11.382-8.565h.002a242.266 242.266 0 0 1 9.371-6.314 243.012 243.012 0 0 1 8.647-5.292.314.314 0 0 1 .044-.022c.305-.122.59.28.353.482Z" fill="#fff"/><path d="M169.725 51.624c-3.817 2.046-8.445 2.403-12.567 1.13a15.775 15.775 0 0 1-3.334-1.478c-.336-.198-.594.351-.26.548 3.876 2.28 8.644 2.848 12.974 1.7a16.35 16.35 0 0 0 3.534-1.403c.343-.183-.007-.679-.347-.497Zm-28.562 7.448a14.038 14.038 0 0 1-.193-3.23 14.772 14.772 0 0 1 2.186-6.951 43.913 43.913 0 0 1 2.986-2.873.345.345 0 0 1-.119.323 13.338 13.338 0 0 0-2.01 2.322 14.112 14.112 0 0 0-2.247 10.358.24.24 0 0 1-.002.125.24.24 0 0 1-.062.108.328.328 0 0 1-.539-.182Zm23.979-22.616a14.157 14.157 0 0 0-3.129 8.218.305.305 0 0 0 .326.278.312.312 0 0 0 .276-.328 13.474 13.474 0 0 1 2.989-7.775c.246-.303-.215-.696-.462-.392Z" fill="#fff"/><path d="M144.142 43.144v.002a21.9 21.9 0 0 1-.048.521v.005a28.856 28.856 0 0 1-.66 3.655 40.823 40.823 0 0 1-.529 1.987v.002a46.835 46.835 0 0 1-1.772 5.017 48.725 48.725 0 0 1-5.064 9.184V31.642c.136-.008.27-.008.406-.004a6.133 6.133 0 0 1 1.874.334c.19.063.375.134.557.214 2.213.973 3.951 3.118 4.705 5.477.566 1.767.679 3.625.531 5.481Z" fill="#F2F2F2"/><path d="M138.906 32.186a.196.196 0 0 1-.022.057 246.186 246.186 0 0 0-2.815 5.668v-1.384a249.297 249.297 0 0 1 2.255-4.514.232.232 0 0 1 .025-.041c.186-.269.649-.085.557.214Zm5.301 11.286c-.036.065-.073.13-.113.195a16.31 16.31 0 0 1-2.113 2.899 17.432 17.432 0 0 1-5.912 4.207v-.662a16.419 16.419 0 0 0 7.578-6.87.336.336 0 0 1 .368-.157.33.33 0 0 1 .127.062.228.228 0 0 1 .1.15.236.236 0 0 1-.035.176Z" fill="#fff"/><path d="M136.475 6.717v15.469h-.406v-.165H.406v.165H0V6.716A6.736 6.736 0 0 1 1.962 1.97 6.686 6.686 0 0 1 6.692 0h123.091a6.687 6.687 0 0 1 4.73 1.97 6.74 6.74 0 0 1 1.962 4.747Z" fill="#3437FF"/><path d="M129.783 0H6.692a6.686 6.686 0 0 0-4.73 1.97A6.736 6.736 0 0 0 0 6.716v88.336A6.736 6.736 0 0 0 1.962 99.8a6.687 6.687 0 0 0 4.73 1.969h123.091a6.688 6.688 0 0 0 4.73-1.97 6.74 6.74 0 0 0 1.962-4.747V6.717a6.74 6.74 0 0 0-1.962-4.748A6.687 6.687 0 0 0 129.783 0Zm6.286 95.053a6.33 6.33 0 0 1-1.843 4.46 6.286 6.286 0 0 1-4.443 1.85H6.692a6.283 6.283 0 0 1-4.443-1.85 6.33 6.33 0 0 1-1.843-4.46V6.717a6.33 6.33 0 0 1 1.843-4.46A6.283 6.283 0 0 1 6.692.408h123.091a6.285 6.285 0 0 1 4.443 1.85 6.33 6.33 0 0 1 1.843 4.46v88.336Z" fill="#3F3D56"/><path d="M27.58 15.164a4.063 4.063 0 0 0 4.055-4.071 4.063 4.063 0 0 0-4.056-4.07 4.063 4.063 0 0 0-4.056 4.07 4.063 4.063 0 0 0 4.056 4.07Zm81.316 0a4.063 4.063 0 0 0 4.055-4.071 4.063 4.063 0 0 0-4.055-4.07 4.063 4.063 0 0 0-4.056 4.07 4.063 4.063 0 0 0 4.056 4.07Z" fill="#fff"/><path d="M39.296 56.483H15.17a3.852 3.852 0 0 1-2.725-1.135 3.881 3.881 0 0 1-1.13-2.735V41.167a3.881 3.881 0 0 1 1.13-2.734 3.853 3.853 0 0 1 2.725-1.135h24.126a3.853 3.853 0 0 1 2.725 1.135 3.881 3.881 0 0 1 1.13 2.734v11.446a3.881 3.881 0 0 1-1.13 2.735 3.852 3.852 0 0 1-2.725 1.135Zm41.044 0H56.214a3.852 3.852 0 0 1-2.725-1.135 3.881 3.881 0 0 1-1.13-2.735V41.167a3.881 3.881 0 0 1 1.13-2.734 3.852 3.852 0 0 1 2.725-1.135H80.34a3.853 3.853 0 0 1 2.725 1.135 3.881 3.881 0 0 1 1.13 2.734v11.446a3.881 3.881 0 0 1-1.13 2.735 3.852 3.852 0 0 1-2.725 1.135Z" fill="#3437FF"/><path d="M80.34 86.055H56.213a3.97 3.97 0 0 1-2.807-1.169 4 4 0 0 1-1.165-2.818V70.623a4 4 0 0 1 1.165-2.818 3.97 3.97 0 0 1 2.807-1.17H80.34a3.969 3.969 0 0 1 2.807 1.17 3.999 3.999 0 0 1 1.165 2.818v11.445a3.999 3.999 0 0 1-1.165 2.818 3.969 3.969 0 0 1-2.807 1.17Zm-41.122 0H15.09a3.969 3.969 0 0 1-2.807-1.169 4 4 0 0 1-1.165-2.818V70.623a4 4 0 0 1 1.165-2.818 3.97 3.97 0 0 1 2.807-1.17h24.127a3.97 3.97 0 0 1 2.807 1.17 4 4 0 0 1 1.165 2.818v11.445a4 4 0 0 1-1.165 2.818 3.969 3.969 0 0 1-2.807 1.17Zm82.166 0H97.257a3.969 3.969 0 0 1-2.807-1.169 3.999 3.999 0 0 1-1.165-2.818V70.623a3.999 3.999 0 0 1 1.165-2.818 3.97 3.97 0 0 1 2.807-1.17h24.127a3.967 3.967 0 0 1 2.807 1.17 3.997 3.997 0 0 1 1.165 2.818v11.445a3.997 3.997 0 0 1-1.165 2.818 3.967 3.967 0 0 1-2.807 1.17Zm0-29.549H97.257a3.97 3.97 0 0 1-2.807-1.17 3.999 3.999 0 0 1-1.165-2.817V41.073a3.999 3.999 0 0 1 1.165-2.818 3.97 3.97 0 0 1 2.807-1.169h24.127a3.967 3.967 0 0 1 2.807 1.17 3.997 3.997 0 0 1 1.165 2.817V52.52a3.997 3.997 0 0 1-1.165 2.818 3.967 3.967 0 0 1-2.807 1.169Z" fill="#F2F2F2"/><path d="M27.234 53.457c3.613 0 6.542-2.94 6.542-6.567 0-3.626-2.93-6.566-6.542-6.566-3.614 0-6.543 2.94-6.543 6.566 0 3.627 2.93 6.567 6.543 6.567Z" fill="#fff"/><path d="M26.584 49.395a.677.677 0 0 1-.408-.136l-.007-.005-1.538-1.182a.684.684 0 0 1-.127-.961.682.682 0 0 1 .958-.127l.996.766 2.354-3.08a.684.684 0 0 1 .957-.127l-.014.02.015-.02a.686.686 0 0 1 .126.961l-2.768 3.624a.684.684 0 0 1-.544.267Z" fill="#3437FF"/><path d="M68.394 53.363c3.613 0 6.542-2.94 6.542-6.567 0-3.627-2.929-6.567-6.542-6.567s-6.542 2.94-6.542 6.567c0 3.627 2.929 6.567 6.542 6.567Z" fill="#fff"/><path d="M67.745 49.301a.677.677 0 0 1-.408-.136l-.008-.006-1.537-1.181a.686.686 0 0 1 .326-1.224.681.681 0 0 1 .505.136l.996.766 2.353-3.08a.684.684 0 0 1 .958-.127l-.015.02.015-.02a.686.686 0 0 1 .127.961l-2.769 3.623a.684.684 0 0 1-.543.268Z" fill="#3437FF"/><path d="M112.609 77.783a2.183 2.183 0 0 0 .552-1.766 2.186 2.186 0 0 0-.994-1.558l-3.653-19.575-4.442 1.654 4.987 18.721a2.208 2.208 0 0 0 .659 2.845 2.181 2.181 0 0 0 2.891-.321Zm-35.444-29.87c.011.122.013.244.005.366l8.636 6.672 2.45-1.01 2 3.511-4.162 2.21a1.752 1.752 0 0 1-2.084-.331l-8.633-8.933a2.298 2.298 0 0 1-2.433-.983 2.321 2.321 0 0 1 1.155-3.458 2.298 2.298 0 0 1 2.531.687c.303.358.49.801.535 1.27Zm20.178 64.614h-2.486l-1.183-7.59h3.67l-.001 7.59Z" fill="#A0616A"/><path d="m97.977 114.946-8.016-.001v-.101a3.142 3.142 0 0 1 .914-2.215 3.126 3.126 0 0 1 2.206-.917h4.896v3.234Z" fill="#2F2E41"/><path d="M106.671 112.527h-2.486l-1.183-7.59h3.669v7.59Z" fill="#A0616A"/><path d="m107.305 114.946-8.016-.001v-.101a3.142 3.142 0 0 1 .914-2.215 3.117 3.117 0 0 1 2.206-.917h4.896v3.234Zm-12.965-3.919a.911.911 0 0 1-.907-.829l-2.166-29.247.102-.008 14.909-1.23.004.106 1.185 30.297a.908.908 0 0 1-.254.67.916.916 0 0 1-.658.28h-2.923a.91.91 0 0 1-.902-.776l-3.97-24.475a.102.102 0 0 0-.107-.086.102.102 0 0 0-.094.1l-.18 24.166a.92.92 0 0 1-.253.626.908.908 0 0 1-.612.282l-3.124.122-.05.002Z" fill="#2F2E41"/><path d="M96.885 43.99c2.75 0 4.981-2.238 4.981-4.999 0-2.761-2.23-5-4.981-5-2.75 0-4.98 2.239-4.98 5 0 2.76 2.23 5 4.98 5Z" fill="#A0616A"/><path d="M97.85 82.817a24.46 24.46 0 0 1-6.443-.884.914.914 0 0 1-.656-.954c.67-10.115.828-17.964-.582-23.395-.6-2.314-.328-4.752.749-6.688 1.62-2.913 4.598-4.686 7.775-4.625.151.003.305.008.46.016 4.82.25 8.577 4.627 8.373 9.758l-.969 24.46a.906.906 0 0 1-.571.823 23.087 23.087 0 0 1-8.136 1.489Z" fill="#3F3D56"/><path d="m90.989 59.462-3.73-4.588a1.174 1.174 0 0 1 .306-1.75l5.054-3.022a3.236 3.236 0 0 1 4.558.483 3.265 3.265 0 0 1-.47 4.576l-3.95 4.35a1.168 1.168 0 0 1-1.768-.049Zm11.736-.576a1.16 1.16 0 0 1-.641-.733l-1.68-5.64a3.27 3.27 0 0 1-.114-2.486 3.251 3.251 0 0 1 1.668-1.841 3.234 3.234 0 0 1 2.477-.121c.809.29 1.47.89 1.839 1.67l3.248 4.923a1.186 1.186 0 0 1 .15.965 1.163 1.163 0 0 1-.629.745l-5.345 2.51a1.16 1.16 0 0 1-.973.008Z" fill="#3F3D56"/><path d="m99.347 43.093-3.692-.848c-.381-.088-.839-.255-.892-.643-.07-.522.678-.886.609-1.408-.067-.506-.749-.572-1.235-.72a1.85 1.85 0 0 1-1.04-.921 1.86 1.86 0 0 1-.11-1.388c-.526.744-1.728.808-2.41.205-.683-.603-.814-1.697-.404-2.511a2.904 2.904 0 0 1 2.174-1.474c.91-.104 1.83.069 2.641.494.054-.577.772-.81 1.349-.816a5.75 5.75 0 0 1 3.332 1.113 5.787 5.787 0 0 1 2.071 2.846c.708 2.29.234 4.8-1.747 6.14l-.646-.07Z" fill="#2F2E41"/><path d="M136.533 115h-77.26a.204.204 0 0 1 0-.407h77.26a.2.2 0 0 1 .144.06.204.204 0 0 1-.144.347Z" fill="#3F3D56"/></g><defs><clipPath id="undraw_booking_re_gw4j 1__a"><path fill="#fff" d="M0 0h173v115H0z"/></clipPath></defs></svg>