<svg width="342" height="304" fill="none" xmlns="http://www.w3.org/2000/svg"><g clip-path="url(#undraw_email_campaign_re_m6k5 (1) 1__undraw_email_campaign_re_m6k5 (1) 1__undraw_email_campaign_re_m6k5 (1) 1__a)"><path d="M66.87 302.786c3.434-2.9 5.52-7.482 4.974-11.942-.547-4.46-3.937-8.561-8.333-9.508-4.396-.947-9.408 1.675-10.743 5.966-.735-8.273-1.582-16.892-5.984-23.938-3.986-6.379-10.89-10.943-18.371-11.76-7.482-.817-15.36 2.268-20.026 8.168-4.666 5.901-5.809 14.479-2.54 21.254 2.407 4.99 6.842 8.704 11.49 11.726 14.826 9.639 33.218 12.896 50.719 10.323l-1.187-.289Z" fill="#F2F2F2"/><path d="M15.786 254.043a121.26 121.26 0 0 1 16.909 16.776 122.989 122.989 0 0 1 13.334 19.719 122.6 122.6 0 0 1 5.71 12.081c.343.84-1.021 1.206-1.36.375a120.318 120.318 0 0 0-11.005-20.804 120.847 120.847 0 0 0-24.586-27.15c-.705-.574.299-1.566.998-.997ZM312.79 125.781h-46.992a2.676 2.676 0 0 1-2.674-2.672v-5.633a2.676 2.676 0 0 1 2.674-2.672h46.992a2.676 2.676 0 0 1 2.674 2.672v5.633a2.676 2.676 0 0 1-2.674 2.672Z" fill="#fff"/><path d="m306.449 117.167-20.027-18.042a2.48 2.48 0 0 0-3.177-.122l-43.827 14.459a2.483 2.483 0 0 0-1.579 3.134l1.767 5.349a2.479 2.479 0 0 0 3.137 1.578l40.203-13.263 16.402 14.776a2.464 2.464 0 0 0 1.791.635 2.469 2.469 0 0 0 1.716-.816l3.775-4.184a2.482 2.482 0 0 0-.181-3.504ZM84.691 252.082a2.294 2.294 0 0 0-2.292 2.29v46.953a2.294 2.294 0 0 0 2.292 2.29h5.638a2.294 2.294 0 0 0 2.292-2.29v-46.953a2.294 2.294 0 0 0-2.292-2.29h-5.638Zm17.554 51.915h-5.638a2.674 2.674 0 0 1-2.674-2.672v-46.953a2.674 2.674 0 0 1 2.674-2.672h5.638a2.68 2.68 0 0 1 2.674 2.672v46.953a2.676 2.676 0 0 1-2.674 2.672Z" fill="#fff"/><path d="M111.476 258.012s2.13 19.14-19.375 18.489c-21.505-.65-13.138-19.456-13.138-19.456s4.494-3.529 15.854-.116 16.659 1.083 16.659 1.083Z" fill="#FFF8E4"/><path d="M102.235 225.44a5.494 5.494 0 0 1-5.268-3.902 5.484 5.484 0 0 1 2.228-6.162l36.835-24.359a2.671 2.671 0 0 1 2.972.013c.291.196.54.448.734.74l3.112 4.698a2.677 2.677 0 0 1-.754 3.702l-36.836 24.36a5.463 5.463 0 0 1-3.023.91Zm-6.689-22.55c10.76 0 19.482-8.715 19.482-19.466 0-10.751-8.722-19.466-19.482-19.466s-19.482 8.715-19.482 19.466c0 10.751 8.723 19.466 19.483 19.466Z" fill="#fff"/><path d="M95.56 191.596c1.264-.035 2.835-.079 4.046-.963a3.098 3.098 0 0 0 1.223-2.318 2.093 2.093 0 0 0-.711-1.715c-.632-.534-1.556-.659-2.551-.367l1.031-7.529-.757-.103-1.212 8.851.632-.29c.733-.336 1.739-.507 2.364.021a1.346 1.346 0 0 1 .44 1.105 2.34 2.34 0 0 1-.91 1.729c-.942.687-2.195.776-3.615.816l.02.763Zm10.896-12.242h-4.115v.763h4.115v-.763Zm-12.988 0h-4.115v.763h4.115v-.763Zm-17.601 82.691s-1.682-57.145 21.867-53.223c23.55 3.921 13.737 59.105 13.737 59.105s-5.046 10.084-17.381-1.12c-12.336-11.205-18.223-4.762-18.223-4.762Z" fill="#FC7A30"/><path d="M84.558 166.982c3.79-2.571 8.575-.824 12.258 1.011 3.577 1.782 7.608 4.05 11.656 2.333 1.581-.67 2.866-1.982 3.089-3.736.266-2.091-.999-4.048-2.406-5.469a17.534 17.534 0 0 0-5.259-3.463 24.603 24.603 0 0 0-5.985-1.818 26.077 26.077 0 0 0-12.247.818 26.048 26.048 0 0 0-10.513 6.332 28.827 28.827 0 0 0-8.184 22.165c.322 4.33 1.706 8.746 4.483 12.145 2.605 3.19 6.506 5.432 10.67 5.619a11.95 11.95 0 0 0 3.042-.247c.72-.153 1.027.951.304 1.105-4.336.924-8.829-.449-12.268-3.153-3.621-2.845-5.843-7.153-6.817-11.592-1.864-8.495.472-17.636 5.823-24.437a26.659 26.659 0 0 1 9.977-7.866 27.72 27.72 0 0 1 12.87-2.36 25.65 25.65 0 0 1 12.407 3.928c3.335 2.154 7.094 6.719 4.374 10.758-1.017 1.511-2.706 2.431-4.459 2.809-2.012.391-4.093.21-6.006-.523-4.358-1.537-8.388-4.972-13.265-4.452a6.468 6.468 0 0 0-2.966 1.082c-.611.415-1.185-.577-.578-.989Z" fill="#FC7A30"/><path d="M251.007 78.323a5.297 5.297 0 0 1-.951-8.135 5.308 5.308 0 0 1 2.689-1.499l43.161-9.388a2.487 2.487 0 0 1 2.954 1.896l-.186.041.186-.04 1.2 5.504a2.483 2.483 0 0 1-1.898 2.952L255 79.042a5.264 5.264 0 0 1-3.993-.72Z" fill="#fff"/><path d="M247.473 75.211a5.318 5.318 0 0 1-.069-.31c-.355-1.868.294-3.834 1.825-5.538a11.734 11.734 0 0 1 6.217-3.46l19.677-4.301a2.49 2.49 0 0 1 2.598 1.049c.184.276.311.586.373.911l1.716 9.037a2.466 2.466 0 0 1-1.908 2.886L258.1 79.813a12.74 12.74 0 0 1-2.719.3c-3.9 0-7.148-1.9-7.908-4.902Z" fill="#FC7A30"/><path d="M250.916 54.992c10.76 0 19.482-8.715 19.482-19.466 0-10.75-8.722-19.466-19.482-19.466-10.759 0-19.482 8.715-19.482 19.466 0 10.751 8.723 19.466 19.482 19.466Z" fill="#fff"/><path d="M267.357 42.553c1.263-.035 2.834-.08 4.045-.963a3.097 3.097 0 0 0 1.223-2.318 2.089 2.089 0 0 0-.711-1.715c-.632-.534-1.556-.659-2.551-.367l1.031-7.529-.757-.103-1.212 8.851.632-.29c.733-.336 1.739-.507 2.364.021a1.342 1.342 0 0 1 .44 1.105 2.336 2.336 0 0 1-.909 1.729c-.943.687-2.196.776-3.616.816l.021.763Zm-2.093-12.243h-4.115v.764h4.115v-.764Zm-15.711-14.307a16.07 16.07 0 0 0-1.866-6.579 16.107 16.107 0 0 0-4.431-5.21 15.696 15.696 0 0 0-13.376-2.55 15.446 15.446 0 0 0-10.269 8.755 16.052 16.052 0 0 0-1.379 6.754 18.247 18.247 0 0 0 1.845 7.278c1.149 2.5 2.598 4.847 3.856 7.292a58.165 58.165 0 0 1 3.2 7.465 58.796 58.796 0 0 1 3.179 16.173c.467 8.692-.365 21.38-10.184 24.716-2.497.848-5.191 1.006-7.809.999a32.096 32.096 0 0 1-8.183-.958c-4.635-1.237-9.036-4.14-11.011-8.653a12.002 12.002 0 0 1-.907-3.271c-.041-.31.293-.57.573-.573a.585.585 0 0 1 .573.573c.64 4.808 4.65 8.496 9.004 10.154a25.876 25.876 0 0 0 7.921 1.53c2.691.137 5.486.116 8.122-.503a11.767 11.767 0 0 0 6.117-3.475 15.792 15.792 0 0 0 3.193-5.772c1.55-4.727 1.713-9.924 1.44-14.851a57.678 57.678 0 0 0-3.246-16.105 56.475 56.475 0 0 0-3.363-7.618c-1.277-2.4-2.694-4.73-3.77-7.232a18.854 18.854 0 0 1-1.698-7.31 17.26 17.26 0 0 1 1.366-6.792 16.553 16.553 0 0 1 9.859-9.298 17.07 17.07 0 0 1 13.758 1.126 17.33 17.33 0 0 1 8.12 10.585c.285 1.096.457 2.218.512 3.35.038.736-1.108.734-1.146 0Z" fill="#FC7A30"/><path d="M245.744 16.404a8.964 8.964 0 0 0-3.002-5.47 8.855 8.855 0 0 0-6.186-2.052c-.737.037-.735-1.108 0-1.145a9.977 9.977 0 0 1 6.74 2.223 9.964 9.964 0 0 1 3.553 6.14c.11.721-.994 1.032-1.105.304Z" fill="#FC7A30"/><path d="M243.336 16.47a2.099 2.099 0 0 1 1.336-2.65l5.441-1.796a2.103 2.103 0 0 1 2.654 1.335 2.098 2.098 0 0 1-1.336 2.651l-5.441 1.796a2.106 2.106 0 0 1-2.25-.622 2.077 2.077 0 0 1-.404-.713Z" fill="#FC7A30"/><path d="M285.826 42.921a1.915 1.915 0 0 0-1.461 1.41 1.913 1.913 0 0 0 .634 1.929l8.409 6.98c.122.104.224.231.298.374.07.144.109.3.115.46l.525 12.802a1.862 1.862 0 0 0 1.47 1.783l.015.003a1.868 1.868 0 0 0 2.096-.944l3.033-5.527a1.152 1.152 0 0 1 1.027-.589 1.114 1.114 0 0 1 .815.362l14.554 15.517a1.899 1.899 0 0 0 1.67.584 1.916 1.916 0 0 0 1.43-1.034l21.341-42.662a1.906 1.906 0 0 0-.194-2.022 1.916 1.916 0 0 0-1.908-.703l-.691.145-53.178 11.132Zm-.341 2.753a1.138 1.138 0 0 1-.378-1.158 1.148 1.148 0 0 1 .878-.846l53.161-11.129.707-.148a1.152 1.152 0 0 1 1.142.423 1.148 1.148 0 0 1 .12 1.21l-21.341 42.662a1.144 1.144 0 0 1-1.402.568 1.147 1.147 0 0 1-.458-.297L303.36 61.44a1.818 1.818 0 0 0-.497-.383l36.983-26.807a.766.766 0 0 0 .251-.944.76.76 0 0 0-.881-.42.662.662 0 0 0-.123.042l-44.904 20.027a1.911 1.911 0 0 0-.295-.302l-8.409-6.98Z" fill="#FF9734"/><path d="M285.826 42.921a1.915 1.915 0 0 0-1.461 1.41 1.913 1.913 0 0 0 .634 1.929l8.409 6.98c.122.104.224.231.298.374.07.144.109.3.115.46l.525 12.802a1.862 1.862 0 0 0 1.47 1.783l.015.003a1.868 1.868 0 0 0 2.096-.944l3.033-5.527a1.152 1.152 0 0 1 1.027-.589 1.114 1.114 0 0 1 .815.362l14.554 15.517a1.899 1.899 0 0 0 1.67.584 1.916 1.916 0 0 0 1.43-1.034l21.341-42.662a1.906 1.906 0 0 0-.194-2.022 1.916 1.916 0 0 0-1.908-.703l-.691.145-53.178 11.132Zm-.341 2.753a1.138 1.138 0 0 1-.378-1.158 1.148 1.148 0 0 1 .878-.846l53.161-11.129.707-.148a1.152 1.152 0 0 1 1.142.423 1.148 1.148 0 0 1 .12 1.21l-21.341 42.662a1.144 1.144 0 0 1-1.402.568 1.148 1.148 0 0 1-.458-.297L303.36 61.44a1.82 1.82 0 0 0-.497-.383 1.859 1.859 0 0 0-.866-.22c-.043-.002-.086 0-.13.001h-.004a1.908 1.908 0 0 0-1.572.985l-3.033 5.53a1.113 1.113 0 0 1-1.261.563l-.007-.002a1.107 1.107 0 0 1-.881-1.069l-.525-12.802a1.809 1.809 0 0 0-.058-.4l.001-.004a1.814 1.814 0 0 0-.338-.684 1.911 1.911 0 0 0-.295-.302l-8.409-6.98Z" fill="#FF9734"/><path d="m294.189 52.956 44.904-20.027a.767.767 0 0 1 1.004.379.762.762 0 0 1-.251.943l-36.983 26.807-.652.474-.447-.618.099-.075h.004l37.528-27.207-44.868 20.008-.001.004-.195.084-.312-.697.17-.075Z" fill="#FF9734"/><path d="M238.087 113.728a2.105 2.105 0 0 0-2.101 2.099v7.634a2.102 2.102 0 0 0 2.101 2.099h24.448a2.104 2.104 0 0 0 2.101-2.099v-7.634a2.1 2.1 0 0 0-2.101-2.099h-24.448Z" fill="#FC7A30"/><path d="M235.204 75.006a19.559 19.559 0 0 0-.629 10.511c1.943 9.517 1.22 20.769-.69 32.791 0 1.265.882 2.29 1.969 2.29h29.869c1.087 0 1.969-1.025 1.969-2.29V82.62c0-10.546-7.175-19.176-16.149-19.634a12.34 12.34 0 0 0-.755-.023c-7 0-13.02 4.974-15.584 12.043Z" fill="#FC7A30"/><path d="M244.717 121.324V77.188a5.297 5.297 0 0 1 5.302-5.298 5.304 5.304 0 0 1 5.302 5.298v44.136a2.484 2.484 0 0 1-2.483 2.481H247.2a2.49 2.49 0 0 1-1.755-.727 2.488 2.488 0 0 1-.728-1.754Z" fill="#fff"/><path d="m253.787 89.711-8.015-.352a2.489 2.489 0 0 1-2.371-2.588l.563-12.774a6.47 6.47 0 0 1 2.097-4.51 6.489 6.489 0 0 1 4.677-1.702 6.498 6.498 0 0 1 5.821 4.276c.291.802.42 1.654.38 2.507l-.563 12.774a2.481 2.481 0 0 1-2.589 2.37Zm13.905 8.177c.949 0 1.719-2.478 1.719-5.535 0-3.056-.77-5.534-1.719-5.534-.949 0-1.719 2.478-1.719 5.534 0 3.057.77 5.535 1.719 5.535Z" fill="#FC7A30"/><path d="M173.485 161.248c5.275 0 9.55-4.272 9.55-9.542s-4.275-9.542-9.55-9.542c-5.274 0-9.55 4.272-9.55 9.542s4.276 9.542 9.55 9.542Zm94.442 0h-73.344a3.055 3.055 0 1 1 0-6.107h73.344a3.055 3.055 0 0 1 2.16 5.213 3.054 3.054 0 0 1-2.16.894Zm-19.864-12.977h-53.48a3.056 3.056 0 0 1-2.161-5.213 3.059 3.059 0 0 1 2.161-.894h53.48a3.058 3.058 0 0 1 3.056 3.053 3.055 3.055 0 0 1-3.056 3.054Zm-74.578 49.238c5.275 0 9.55-4.272 9.55-9.542s-4.275-9.543-9.55-9.543c-5.274 0-9.55 4.273-9.55 9.543s4.276 9.542 9.55 9.542Zm94.442 0h-73.344a3.056 3.056 0 0 1-2.161-5.213 3.055 3.055 0 0 1 2.161-.894h73.344a3.054 3.054 0 1 1 0 6.107Zm-19.864-12.978h-53.48a3.055 3.055 0 1 1 0-6.107h53.48a3.055 3.055 0 0 1 2.16 5.213 3.054 3.054 0 0 1-2.16.894Zm-74.578 49.62c5.275 0 9.55-4.272 9.55-9.542s-4.275-9.543-9.55-9.543c-5.274 0-9.55 4.273-9.55 9.543s4.276 9.542 9.55 9.542Zm94.442 0h-73.344a3.05 3.05 0 0 1-2.161-5.213 3.059 3.059 0 0 1 2.161-.894h73.344a3.058 3.058 0 0 1 3.056 3.053 3.052 3.052 0 0 1-3.056 3.054Zm-19.864-12.978h-53.48a3.055 3.055 0 1 1 0-6.107h53.48a3.055 3.055 0 0 1 2.16 5.213 3.054 3.054 0 0 1-2.16.894Z" fill="#F5F5F9"/><path d="M293.477 251.327H141.441a6.501 6.501 0 0 1-6.494-6.489V131.477a6.501 6.501 0 0 1 6.494-6.489h152.036a6.503 6.503 0 0 1 6.494 6.489v113.361a6.503 6.503 0 0 1-6.494 6.489ZM141.441 125.751a5.732 5.732 0 0 0-5.73 5.726v113.361a5.734 5.734 0 0 0 5.73 5.726h152.036a5.734 5.734 0 0 0 5.73-5.726V131.477a5.732 5.732 0 0 0-5.73-5.726H141.441Z" fill="#FF9734"/><path d="M137.621 148.271c11.814 0 21.392-9.57 21.392-21.375s-9.578-21.374-21.392-21.374c-11.815 0-21.392 9.569-21.392 21.374 0 11.805 9.577 21.375 21.392 21.375Z" fill="#fff"/><path d="M135.5 135.05a2.218 2.218 0 0 1-1.335-.443l-.023-.018-5.028-3.846a2.238 2.238 0 0 1-.855-1.478 2.214 2.214 0 0 1 .441-1.65 2.228 2.228 0 0 1 2.349-.799c.284.075.549.206.782.384l3.256 2.495 7.696-10.027a2.228 2.228 0 0 1 2.349-.798c.284.076.549.206.782.385l-.048.065.049-.064a2.233 2.233 0 0 1 .414 3.129l-9.052 11.794a2.228 2.228 0 0 1-1.777.871Z" fill="#FC7A30"/><path d="M137.457 254.7c-.376 0-.748-.079-1.091-.234l-40.303-18.065a5.503 5.503 0 0 1-2.888-3.055 5.488 5.488 0 0 1 5.295-7.441 5.523 5.523 0 0 1 2.09.48l40.303 18.066a2.668 2.668 0 0 1 1.345 3.531l-2.308 5.14a2.677 2.677 0 0 1-2.443 1.578Z" fill="#fff"/><path d="M145.924 304H.382a.38.38 0 0 1-.382-.382.383.383 0 0 1 .382-.381h145.542a.383.383 0 0 1 .382.381.38.38 0 0 1-.382.382Z" fill="#FF9734"/></g></svg>