<svg width="475" height="308" fill="none" xmlns="http://www.w3.org/2000/svg"><g clip-path="url(#undraw_forgot_password_re_hxwm 1__a)"><path d="M170.383 177.257c16.278-27.94 47.33-49.393 80.2-47.326-24.246 25.726-38.385 58.99-39.914 93.908-.54 13.468.297 28.503-8.868 38.588-5.703 6.276-14.42 9.315-22.99 9.952-8.571.638-17.14-.873-25.596-2.378l-2.052.615c-.781-32.13 2.942-65.42 19.22-93.359Z" fill="#F0F0F0"/><path d="M250.631 130.604c-24.307 11.417-45.033 30.485-57.756 53.739-2.751 5.028-5.093 10.362-6.115 16.001-1.022 5.642-.308 11.013 1.667 16.371 1.806 4.899 4.234 9.706 4.788 14.948.583 5.525-1.5 10.691-5.251 14.792-4.589 5.016-10.751 8.125-16.886 10.96-6.812 3.149-13.938 6.314-18.762 12.19-.585.712-1.683-.215-1.099-.926 8.394-10.223 22.762-12.145 32.725-20.38 4.649-3.843 8.14-9.076 7.92-15.208-.193-5.362-2.693-10.321-4.565-15.266-1.966-5.192-2.946-10.413-2.241-15.948.721-5.663 2.854-11.097 5.461-16.171 5.879-11.444 13.925-21.95 23.142-31.032 10.594-10.439 22.939-19.033 36.502-25.411.84-.394 1.305.949.47 1.341Z" fill="#fff"/><path d="M196.601 176.572c-3.726-2.659-6.362-6.523-7.438-10.903a18.573 18.573 0 0 1 1.566-13.009c.425-.811 1.737-.205 1.312.608a17.196 17.196 0 0 0-1.457 12.109c1.01 4.077 3.481 7.667 6.966 10.122.757.535-.196 1.604-.949 1.073Zm-9.425 37.777c9.338-1.331 17.818-6.047 23.75-13.208.587-.71 1.685.217 1.099.926-6.188 7.44-15.023 12.33-24.742 13.695-.927.129-1.028-1.284-.107-1.413Zm37.794-68.371a11.027 11.027 0 0 0 4.48 2.924c1.719.598 3.563.77 5.366.501.924-.141 1.025 1.273.106 1.412-1.994.289-4.03.097-5.93-.56a12.376 12.376 0 0 1-4.971-3.205.721.721 0 0 1-.075-.999.74.74 0 0 1 1.024-.073Z" fill="#fff"/><path d="M315.985 218.07c-.575.104-1.149.208-1.729.323a147.838 147.838 0 0 0-22.683 6.117c-.574.195-1.153.401-1.719.612-17.708 6.534-34.018 16.218-48.103 28.561a146.528 146.528 0 0 0-15.579 15.93c-6.59 7.855-13.094 16.884-21.705 22.006a25.81 25.81 0 0 1-2.772 1.466l-49.604-20.075c-.09-.101-.184-.191-.274-.292l-2.018-.713c.225-.311.465-.627.69-.938.13-.18.271-.356.401-.536.09-.119.18-.238.255-.35.03-.04.06-.079.085-.108.074-.112.156-.209.225-.31a478.264 478.264 0 0 1 4.06-5.307c.005-.011.005-.011.021-.018 10.461-13.406 22.162-26.078 35.462-36.614.4-.317.805-.645 1.227-.953a142.008 142.008 0 0 1 19.158-12.644 126.339 126.339 0 0 1 11.364-5.483 106.282 106.282 0 0 1 31.566-7.855c21.687-1.965 43.778 2.86 60.411 16.153.425.34.84.676 1.261 1.028Z" fill="#F0F0F0"/><path d="M315.612 218.639c-26.453-5.163-54.768-2.114-79.277 8.98-5.298 2.398-10.46 5.281-14.755 9.184-4.298 3.904-7.042 8.612-8.771 14.05-1.582 4.973-2.609 10.237-5.401 14.748-2.944 4.754-7.795 7.655-13.32 8.726-6.759 1.309-13.598.171-20.246-1.169-7.382-1.487-15.024-3.146-22.503-1.289-.906.225-1.211-1.16-.306-1.384 13.011-3.232 25.669 3.674 38.706 2.951 6.083-.337 12.099-2.465 15.707-7.49 3.155-4.395 4.219-9.823 5.776-14.871 1.634-5.3 4.073-10.044 8.051-14.05 4.07-4.098 9.127-7.184 14.339-9.704 11.756-5.683 24.663-9.345 37.627-11.182a135.244 135.244 0 0 1 44.824 1.154c.914.178.457 1.523-.451 1.346Z" fill="#fff"/><path d="M244.107 223.603a18.558 18.558 0 0 1 .788-13.075c1.844-4.13 5.132-7.485 9.277-9.467.841-.398 1.514.857.673 1.256-3.863 1.839-6.926 4.964-8.635 8.813a17.182 17.182 0 0 0-.684 12.174c.274.871-1.146 1.165-1.419.299Zm-30.837 24.626c8.277 4.423 17.958 5.639 27.113 3.406.907-.222 1.212 1.163.306 1.384-9.531 2.306-19.603 1.021-28.206-3.599-.819-.441-.028-1.629.787-1.191Zm72.365-32.389c.161 1.773.77 3.48 1.773 4.967a10.923 10.923 0 0 0 3.975 3.552c.825.43.033 1.618-.786 1.19a12.241 12.241 0 0 1-4.39-3.931 11.87 11.87 0 0 1-1.991-5.479.715.715 0 0 1 .108-.528.747.747 0 0 1 .449-.314.744.744 0 0 1 .545.098.71.71 0 0 1 .317.445Z" fill="#fff"/><path d="M221.491 251.19c-6.946-32.773-15.63-43.7-15.63-43.7l-3.318-2.51-3.989-3.024.019-.389-.946-.313-.222-.169-.365-.273-.058.062-.124.125-18.052-5.988-22.903-7.59-10.606-13.45a18.256 18.256 0 0 0-6.497-5.173 18.739 18.739 0 0 0-8.177-1.811l-33.87.245c-4.58.033-8.982 1.736-12.34 4.775l-22.262 20.148-34.69 16.165-.058-.057-.364.254-5.36 2.501.221 1.123-3.317 2.335s-8.684 10.168-15.631 40.663C1.185 262.898.315 279.544.001 300.055a7.663 7.663 0 0 0 .576 3.031c.396.963.984 1.84 1.73 2.579a8.043 8.043 0 0 0 2.617 1.727 8.19 8.19 0 0 0 3.098.608H216.43a8.213 8.213 0 0 0 3.095-.607 8.033 8.033 0 0 0 2.616-1.726 7.806 7.806 0 0 0 1.731-2.576 7.644 7.644 0 0 0 .579-3.028c-.307-22.319-1.176-40.458-2.96-48.873Z" fill="#3F3D56"/><path d="M245.264 28.581c-7.209 0-14.122 2.794-19.219 7.768-5.097 4.973-7.961 11.718-7.961 18.752 0 7.033 2.864 13.779 7.961 18.752 5.097 4.973 12.01 7.767 19.219 7.767H447.82c7.208 0 14.122-2.794 19.219-7.767C472.136 68.88 475 62.134 475 55.101c0-7.034-2.864-13.779-7.961-18.752-5.097-4.974-12.011-7.768-19.219-7.768H245.264Z" fill="#E5E5E5"/><path d="M245.264 33.948c-5.749 0-11.264 2.229-15.329 6.196-4.066 3.967-6.35 9.347-6.35 14.957 0 5.61 2.284 10.99 6.35 14.957 4.065 3.967 9.58 6.195 15.329 6.195H447.82c5.75 0 11.264-2.228 15.33-6.195 4.065-3.967 6.349-9.347 6.349-14.957 0-5.61-2.284-10.99-6.349-14.957-4.066-3.967-9.58-6.196-15.33-6.196H245.264Z" fill="#fff"/><path d="M119.007 154.572c24.506 0 44.373-19.384 44.373-43.296 0-23.911-19.867-43.295-44.373-43.295-24.507 0-44.374 19.384-44.374 43.295 0 23.912 19.867 43.296 44.374 43.296Z" fill="#9E616A"/><path d="M107.655 152.452c-.19-.407-.379-.816-.567-1.226.073.002.144.012.217.014l.35 1.212ZM73.4 69.95c2.244-1.747 4.867-3.354 7.736-3.264 2.87.09 5.78 2.619 5.185 5.36 5.27-9.106 13.66-16.109 23.694-19.78a46.669 46.669 0 0 1 31.182-.298c7.132 2.455 14.125 7.366 15.764 14.57.42 1.85.51 3.877 1.694 5.378 1.492 1.894 4.346 2.322 6.697 1.656l.07-.02a2.147 2.147 0 0 1 1.231-.038c.405.108.767.332 1.04.643s.443.695.49 1.102c.047.407-.032.818-.227 1.18l-2.018 3.672c2.544.553 5.187.498 7.704-.16.418-.107.86-.085 1.265.063.405.148.753.414.997.762.243.349.37.762.364 1.184a2.011 2.011 0 0 1-.402 1.172c-6.653 8.913-17.77 14.669-29.113 14.601-8.063-.048-16.208-2.759-24.055-.95a21.103 21.103 0 0 0-8.301 3.963 20.47 20.47 0 0 0-5.738 7.069 19.978 19.978 0 0 0-2.051 8.792 19.968 19.968 0 0 0 2.036 8.795c-2.41-2.572-7.07-1.963-9.536.559-2.466 2.522-3.104 6.287-2.855 9.764.38 5.319 2.515 10.33 4.767 15.207-18.876-.579-36.73-13.499-42.74-30.973-6.035-17.547.29-38.467 15.12-50.01Z" fill="#2F2E41"/><path opacity=".2" d="m43.675 241.296 12.446 66.07 7.467.634-19.913-66.704Zm137.093-4.983-12.446 71.005-7.468.682 19.914-71.687Z" fill="#000"/><path d="M84.014 47.714c-2.386.972-4.876-.093-5.92-2.533-1.06-2.478-.07-4.992 2.354-5.98 2.425-.988 4.87.08 5.948 2.597 1.061 2.48.082 4.912-2.382 5.916Zm-4.571-13.39-1.897.773a2.095 2.095 0 0 1-1.486.03 2.032 2.032 0 0 1-1.114-.96l-.094-.179c-2.042-3.592-2.275-7.959-.691-12.97 1.468-4.496 2.077-7.658.851-10.522-1.417-3.312-4.444-4.35-8.303-2.846-1.497.61-1.974.6-3.152 1.74a2.71 2.71 0 0 1-.898.582c-.336.134-.696.2-1.06.194a2.67 2.67 0 0 1-1.018-.214 2.615 2.615 0 0 1-.853-.586 2.572 2.572 0 0 1-.727-1.774 2.57 2.57 0 0 1 .709-1.782 20.764 20.764 0 0 1 7.014-4.698C75.016-2.267 79.19 2.72 81.1 7.185c1.868 4.366.817 8.416-.871 13.663-1.416 4.36-1.333 7.59.274 10.801a1.95 1.95 0 0 1-.387 2.228 2.04 2.04 0 0 1-.674.447Zm210.563 33.425h-40.301a.996.996 0 0 1-.691-.275.94.94 0 0 1-.286-.672.93.93 0 0 1 .286-.672.978.978 0 0 1 .691-.275h40.301a.984.984 0 0 1 .682.28.934.934 0 0 1 0 1.334.984.984 0 0 1-.682.28Zm51.124.315h-40.301a.998.998 0 0 1-.691-.275.94.94 0 0 1-.286-.672.93.93 0 0 1 .286-.672.978.978 0 0 1 .691-.275h40.301a.998.998 0 0 1 .691.275.93.93 0 0 1 0 1.344.98.98 0 0 1-.691.275Zm51.125.316h-40.302a.984.984 0 0 1-.682-.28.938.938 0 0 1-.282-.667c0-.25.102-.49.282-.667a.984.984 0 0 1 .682-.28h40.302a.987.987 0 0 1 .69.275.94.94 0 0 1 .287.672.94.94 0 0 1-.287.672.97.97 0 0 1-.69.275Zm51.124.316h-40.301a.984.984 0 0 1-.682-.28.938.938 0 0 1-.282-.667c0-.25.102-.49.282-.668a.984.984 0 0 1 .682-.28h40.301a.984.984 0 0 1 .683.28.94.94 0 0 1 .282.668c0 .25-.102.49-.282.667a.984.984 0 0 1-.683.28Zm-173.612-9.664c4.136 0 7.49-3.272 7.49-7.308s-3.354-7.308-7.49-7.308c-4.137 0-7.491 3.272-7.491 7.308s3.354 7.308 7.491 7.308Zm51.433 0c4.137 0 7.49-3.272 7.49-7.308s-3.353-7.308-7.49-7.308c-4.137 0-7.49 3.272-7.49 7.308s3.353 7.308 7.49 7.308Zm51.433 0c4.137 0 7.49-3.272 7.49-7.308s-3.353-7.308-7.49-7.308c-4.137 0-7.49 3.272-7.49 7.308s3.353 7.308 7.49 7.308Zm51.433 0c4.137 0 7.491-3.272 7.491-7.308s-3.354-7.308-7.491-7.308c-4.136 0-7.49 3.272-7.49 7.308s3.354 7.308 7.49 7.308Z" fill="#6C63FF"/></g><defs><clipPath id="undraw_forgot_password_re_hxwm 1__a"><path fill="#fff" d="M0 0h475v308H0z"/></clipPath></defs></svg>