<svg width="598" height="357" fill="none" xmlns="http://www.w3.org/2000/svg"><g clip-path="url(#undraw_login_re_4vu2 1__a)"><path d="M457.843 352.963c-7.656-6.46-12.307-16.665-11.087-26.599 1.219-9.934 8.773-19.067 18.571-21.176 9.798-2.11 20.967 3.73 23.943 13.287 1.638-18.426 3.525-37.624 13.336-53.316 8.884-14.208 24.27-24.375 40.945-26.194 16.676-1.819 34.232 5.051 44.632 18.193 10.4 13.143 12.946 32.249 5.663 47.338-5.366 11.115-15.252 19.387-25.609 26.117a165.47 165.47 0 0 1-113.038 24.693l2.644-2.343Z" fill="#F2F2F2"/><path d="M571.693 244.397a270.226 270.226 0 0 0-37.685 37.366 270.728 270.728 0 0 0-42.445 70.828c-.765 1.87 2.277 2.685 3.032.835a269.329 269.329 0 0 1 79.322-106.809c1.571-1.276-.666-3.487-2.224-2.22Z" fill="#fff"/><path d="M192.506 351.208c10.515-8.873 16.903-22.889 15.228-36.534-1.675-13.644-12.05-26.188-25.508-29.086-13.458-2.897-28.798 5.124-32.886 18.251-2.25-25.309-4.842-51.677-18.317-73.23-12.201-19.515-33.334-33.479-56.238-35.977-22.903-2.498-47.018 6.937-61.302 24.988C-.8 237.671-4.298 263.914 5.706 284.638c7.37 15.267 20.947 26.628 35.173 35.872 45.386 29.489 101.687 41.788 155.259 33.916" fill="#F2F2F2"/><path d="M36.132 202.092a371.135 371.135 0 0 1 51.76 51.323 376.126 376.126 0 0 1 40.82 60.324 374.52 374.52 0 0 1 17.48 36.958c1.05 2.569-3.128 3.687-4.166 1.147A367.902 367.902 0 0 0 108.34 288.2a370.599 370.599 0 0 0-45.18-55.731 370.123 370.123 0 0 0-30.082-27.327c-2.157-1.753.915-4.789 3.054-3.05Z" fill="#fff"/><path d="M429.254 356.219H178.369V99.179C178.369 44.49 222.925 0 277.692 0h52.239c54.767 0 99.323 44.491 99.323 99.178V356.22Z" fill="#F2F2F2"/><path d="M377.015 356.219H178.369V99.179a98.311 98.311 0 0 1 20.349-60.143 99.241 99.241 0 0 1 21.139-20.488c.453-.33.909-.653 1.371-.977A99.15 99.15 0 0 1 242.86 6.274a79.54 79.54 0 0 1 1.379-.509A99.12 99.12 0 0 1 265.622.73c.452-.062.916-.11 1.38-.158a100.702 100.702 0 0 1 21.381 0c.463.048.927.096 1.384.159a99.084 99.084 0 0 1 21.377 5.034c.463.165.926.337 1.381.51a98.882 98.882 0 0 1 22.76 12.094c4.5 3.207 8.726 6.78 12.637 10.682a99.208 99.208 0 0 1 8.746 9.987 98.315 98.315 0 0 1 20.347 60.14V356.22Z" fill="#CCC"/><path d="M360.862 241.254c6.074 0 10.998-4.917 10.998-10.982 0-6.065-4.924-10.981-10.998-10.981-6.074 0-10.998 4.916-10.998 10.981 0 6.065 4.924 10.982 10.998 10.982Z" fill="#6656FF"/><path d="M408.702 348.52h-8.427l-4.01-32.457 12.438.001-.001 32.456Z" fill="#FFB8B8"/><path d="M394.255 346.115h16.252v10.218h-26.485a10.205 10.205 0 0 1 2.998-7.225 10.239 10.239 0 0 1 7.235-2.993Z" fill="#2F2E41"/><path d="M450.63 348.52h-8.427l-4.009-32.457 12.438.001-.002 32.456Z" fill="#FFB8B8"/><path d="M436.184 346.115h16.251v10.218h-26.484a10.205 10.205 0 0 1 2.997-7.225 10.233 10.233 0 0 1 7.236-2.993Z" fill="#2F2E41"/><path d="M366.428 232.448a7.366 7.366 0 0 1 .53-8.971 7.384 7.384 0 0 1 2.571-1.903l28.646-78.84 14.095 7.682-32.707 75.341a7.405 7.405 0 0 1-3.592 9.171 7.431 7.431 0 0 1-9.543-2.48Zm79.898 14.814a7.38 7.38 0 0 1-3.463-8.294 7.366 7.366 0 0 1 1.474-2.836l-8.874-83.399 16.041.732 3.688 82.033a7.407 7.407 0 0 1 .8 9.815 7.428 7.428 0 0 1-9.666 1.949Zm-25.591-119.131c9.323 0 16.882-7.547 16.882-16.857 0-9.31-7.559-16.858-16.882-16.858-9.324 0-16.882 7.548-16.882 16.858s7.558 16.857 16.882 16.857Z" fill="#FFB8B8"/><path d="M446.218 228.295h-50.897l.062-.396c.091-.591 9.07-59.328 2.448-78.544a8.095 8.095 0 0 1 .164-5.803 8.109 8.109 0 0 1 4.008-4.206c9.466-4.451 27.637-9.932 42.973 3.369a19.356 19.356 0 0 1 6.502 16.058l-5.26 69.522Z" fill="#6656FF"/><path d="m405.096 177.252-22.914-4.642 10.741-25.416a9.61 9.61 0 0 1 4.433-5.858 9.635 9.635 0 0 1 7.282-1.02 9.626 9.626 0 0 1 5.877 4.412 9.598 9.598 0 0 1 1.039 7.269l-6.458 25.255Zm29.348 8.619-1.378-31.532c-1.044-5.928 2.354-11.531 7.58-12.447 5.228-.913 10.332 3.198 11.381 9.169l5.178 29.464-22.761 5.346Z" fill="#6656FF"/><path d="M444.524 224.52c8.19 31.144 9.083 70.742 6.874 113.935l-10.998-1.373-19.933-82.363-10.998 83.736-12.372-.687c-3.697-45.32-7.296-84.226-1.375-109.817l48.802-3.431Zm-12.666-100.218c-3.149 3.35-8.998 1.551-9.408-3.025a5.523 5.523 0 0 1 .006-1.068c.212-2.027 1.385-3.868 1.104-6.008a3.143 3.143 0 0 0-.577-1.475c-2.51-3.356-8.401 1.501-10.77-1.537-1.452-1.863.255-4.796-.859-6.877-1.471-2.748-5.828-1.393-8.561-2.898-3.04-1.674-2.858-6.332-.857-9.164 2.441-3.455 6.72-5.299 10.945-5.564 4.226-.266 8.422.874 12.367 2.41 4.483 1.744 8.928 4.155 11.686 8.09 3.354 4.786 3.677 11.221 2 16.817-1.021 3.404-4.504 7.563-7.076 10.299Z" fill="#2F2E41"/><path d="M577.367 356.66H69.896a.817.817 0 0 1 0-1.634h507.471a.818.818 0 0 1 0 1.634Z" fill="#3F3D56"/><path d="M322.37 281.749h-89.356a4.452 4.452 0 0 1-3.146-1.279 4.433 4.433 0 0 1-1.322-3.124V78.186a4.432 4.432 0 0 1 1.322-3.124 4.449 4.449 0 0 1 3.146-1.279h89.356a4.449 4.449 0 0 1 3.146 1.28 4.436 4.436 0 0 1 1.322 3.123v199.16a4.437 4.437 0 0 1-4.468 4.403Z" fill="#fff"/><path d="M326.838 138.225h-98.292v1.373h98.292v-1.373Zm.344 78.32H228.89v1.373h98.292v-1.373Z" fill="#CCC"/><path d="M260.852 73.783h-1.375v208.652h1.375V73.783Zm34.367 0h-1.374v208.652h1.374V73.783Z" fill="#CCC"/></g><defs><clipPath id="undraw_login_re_4vu2 1__a"><path fill="#fff" d="M0 0h598v357H0z"/></clipPath></defs></svg>