<svg width="674" height="498" fill="none" xmlns="http://www.w3.org/2000/svg"><g clip-path="url(#undraw_doctors_hwty 1__a)"><path opacity=".1" d="M44.113 195.19h58.579v79.836H48.397a121.78 121.78 0 0 1-.433 2.47h54.728v64.375c-.092 0-.184-.069-.271-.104a124.629 124.629 0 0 1-4.618-1.945c-.329-.15-.652-.306-.987-.45a116.889 116.889 0 0 1-4.618-2.309 52.023 52.023 0 0 1-1.599-.877 96.064 96.064 0 0 1-23.032-17.926c-.202-.19-.387-.398-.577-.577a99.701 99.701 0 0 1-2.742-3.093c-.335-.387-.658-.78-.987-1.155a94.882 94.882 0 0 1-3.048-3.942c-.15-.202-.289-.398-.433-.577a85.248 85.248 0 0 1-9.929-17.949c-.08-.19-.156-.398-.23-.577a76.148 76.148 0 0 1-2.142-6.158 46.648 46.648 0 0 1-.745-2.638c-.08-.26-.144-.525-.214-.785-3.244-12.783-3.619-26.069-3.619-39.292V236.9c.046-5.398.11-10.79.19-16.177.031-1.385.06-2.776.087-4.173.081-3.536.196-7.08.347-10.631.034-.981.08-1.968.132-2.943a79.97 79.97 0 0 1 .087-1.697c.104-2.043.227-4.073.37-6.089Zm58.579-88.892H70.557a244.622 244.622 0 0 1 17.092-23.513 300.979 300.979 0 0 1 15.043-17.083v40.596Zm0 2.459v83.963H44.298c0-.243.035-.491.058-.733.052-.664.104-1.322.161-1.986a99.9 99.9 0 0 1 .208-2.308c.075-.762.15-1.685.243-2.522.092-.837.167-1.685.26-2.522a175 175 0 0 1 .288-2.505c.104-.831.196-1.674.312-2.505a237.086 237.086 0 0 1 .687-4.992c0-.15.046-.295.069-.439a201.348 201.348 0 0 1 4.295-21.077 156.01 156.01 0 0 1 7.244-21.354 160.287 160.287 0 0 1 10.899-21.02h33.67Zm13.993 86.433v79.836h125.124V195.19H116.685Zm0 82.306v68.565c.716.144 1.42.289 2.13.41.952.185 1.911.352 2.886.496l.577.081c.381.064.768.115 1.155.162.964.138 1.928.242 2.886.334.45.047.918.081 1.374.122l1.114.08c.606.047 1.206.081 1.807.104.369 0 .739.029 1.114.041.375.011.577 0 .877 0h3.21c.496 0 .993 0 1.483-.046h.029c.347 0 .687 0 1.033-.041.099.006.197.006.295 0 .288 0 .577 0 .854-.034a1.07 1.07 0 0 1 .196 0 78.418 78.418 0 0 0 1.94-.151c.652-.057 1.27-.127 1.922-.196l1.311-.161a115.005 115.005 0 0 0 15.845-3.371c11.678-3.255 23.09-7.809 34.762-11.139 15.078-4.3 31.748-6.418 46.318-1.183v-54.073H116.685Zm125.124-171.198V.012a160.814 160.814 0 0 0-40.65 4.761c-31.685 7.959-60.137 25.221-84.474 47.268v54.252h6.298v2.464h-6.298v83.963h125.124v-83.963h-93.064v-2.47l93.064.011Zm160.752-35.904c-7.839-.277-15.632-2.753-22.686-6.59-13.473-7.325-24.244-18.648-36.274-28.194C318.606 15.716 287.608 3.705 255.807.727v105.571h178.606l.445-.467-32.297-35.437Zm16.273-2.886 17.253 18.937V62.528c-5.807.733-10.863 2.435-17.253 4.957v.023Zm17.253 295.579v-85.591h-36.793a22.703 22.703 0 0 0-.312-1.102c.11.37.208.739.306 1.102H255.807v61.893a127.052 127.052 0 0 1 4.041 3.152 315.596 315.596 0 0 1 4.289 3.572l1.432 1.183a89.56 89.56 0 0 0 2.078 1.703 320.25 320.25 0 0 0 4.196 3.324c.704.554 1.413 1.099 2.124 1.633a289.728 289.728 0 0 0 35.582 23.265 295.853 295.853 0 0 0 14.108 7.359 277.728 277.728 0 0 0 8.659 4.04 317.855 317.855 0 0 0 84.278 24.54c6.457.95 12.944 1.701 19.459 2.251v-52.336h.577l-.543.012Zm-180.28-254.33v83.963h180.28v-83.963h-180.28Zm0 86.421v79.848h180.28V195.19l-180.28-.012ZM450.08 62.412v26.722l22.016-24.165a231.021 231.021 0 0 0-22.016-2.557Zm0 132.778v79.836h175.339V195.19H450.08Zm174.721 174.228.618-91.922H450.08V416.34c11.294.47 22.605.333 33.884-.41h.197c5.387-.346 10.75-.839 16.087-1.477h.122a295.887 295.887 0 0 0 82.679-22.082l41.752-22.953Zm34.445-161.115a265.925 265.925 0 0 0-2.05-4.617 208.23 208.23 0 0 0-4.098-8.49h-13.681v79.83H674c-.029-22.612-5.755-45.698-14.754-66.723Zm-19.829 69.193v79.069c9.738-9.332 17.976-20.015 23.898-32.228 7.129-14.711 10.391-30.629 10.662-46.846l-34.56.005Zm0-105.571v20.778h12.399a225.539 225.539 0 0 0-12.399-20.778ZM520.504 78.082a157.18 157.18 0 0 0-2.748-1.04 249.489 249.489 0 0 0-29.612-8.899l-33.7 36.972-.658.71.433.468h119.94a256.209 256.209 0 0 0-53.655-28.211Zm57.176 30.675H452.539l-2.459 2.245v81.718h175.339v-39.592a249.622 249.622 0 0 0-47.739-44.371Z" fill="#3437FF"/><path opacity=".1" d="M102.692 151.114v41.606H44.298c0-.243.035-.491.058-.733.052-.664.104-1.322.161-1.986a99.9 99.9 0 0 1 .208-2.308c.075-.762.15-1.685.243-2.522.092-.837.167-1.685.26-2.522a175 175 0 0 1 .288-2.505c.104-.831.196-1.674.312-2.505a237.086 237.086 0 0 1 .687-4.992c0-.15.046-.295.069-.439a201.348 201.348 0 0 1 4.295-21.077l51.813-.017ZM44.113 195.19h58.579v79.836H48.397a121.78 121.78 0 0 1-.433 2.47h54.728v64.375c-.092 0-.184-.069-.271-.104a124.629 124.629 0 0 1-4.618-1.945c-.329-.15-.652-.306-.987-.45a116.889 116.889 0 0 1-4.618-2.309 52.023 52.023 0 0 1-1.599-.877 96.064 96.064 0 0 1-23.032-17.926c-.202-.19-.387-.398-.577-.577a99.701 99.701 0 0 1-2.742-3.093c-.335-.387-.658-.78-.987-1.155a94.882 94.882 0 0 1-3.048-3.942c-.15-.202-.289-.398-.433-.577a85.248 85.248 0 0 1-9.929-17.949c-.08-.19-.156-.398-.23-.577a76.148 76.148 0 0 1-2.142-6.158 46.648 46.648 0 0 1-.745-2.638c-.08-.26-.144-.525-.214-.785-3.244-12.783-3.619-26.069-3.619-39.292V236.9c.046-5.398.11-10.79.19-16.177.031-1.385.06-2.776.087-4.173.081-3.536.196-7.08.347-10.631.034-.981.08-1.968.132-2.943a79.97 79.97 0 0 1 .087-1.697c.104-2.043.227-4.073.37-6.089Zm116.616-74.405v71.935h-44.05v-71.935h6.281V96.429h25.779v24.356h11.99Zm-.006 74.399h-44.044v79.837h44.044v-79.837Zm-44.038 82.312h44.044v66.372a114.093 114.093 0 0 1-15.846 3.365 34.17 34.17 0 0 1-1.31.161c-.647.075-1.287.145-1.928.202l-1.934.156h-.196l-.854.046h-.295c-.346 0-.687.041-1.033.047h-.029c-.496 0-.987.034-1.483.046h-4.087c-.376 0-.745 0-1.12-.046a51.417 51.417 0 0 1-1.801-.104l-1.114-.081a55.652 55.652 0 0 1-1.38-.127 54.63 54.63 0 0 1-2.886-.329l-1.155-.162-.577-.081a70.672 70.672 0 0 1-2.886-.49 66.232 66.232 0 0 1-2.13-.421v-68.554Zm319.397-165.207h-36.321v80.425h36.321v-80.425Zm.005 82.895v79.842h-180.28v-34.438h96.025v20.316h47.929v-65.72h36.326Zm.572 167.92c-.191 0-.381 0-.577-.034v52.375a297.054 297.054 0 0 1-19.454-2.245 318.296 318.296 0 0 1-84.312-24.528 308.147 308.147 0 0 1-22.767-11.422 290.898 290.898 0 0 1-35.576-23.265 298.692 298.692 0 0 1-8.393-6.654c-1.911-1.582-3.804-3.198-5.732-4.762a116.944 116.944 0 0 0-4.041-3.162v-61.911h143.481c-.104-.369-.196-.732-.3-1.102.109.37.213.733.306 1.102h36.793v85.568c.191.006.381.023.572.04Zm94.155-256.806h-23.667v-7.353h10.604V77.043c.919.338 1.835.685 2.747 1.039v20.864h10.31l.006 7.352Zm57.026 86.422h-116.2a.07.07 0 0 0 .035 0H450.08v-80.425h6.107v59.446h27.904v-35.206h23.061v-27.778h23.668v27.795h23.049v35.206h33.977l-.006 20.962Zm-137.76 2.47v79.836h137.766V195.19H450.08Zm175.143 173.807.196-63.197h-37.573v-28.28H450.08v138.82c11.294.47 22.605.333 33.884-.41h.197a294.72 294.72 0 0 0 16.088-1.477h.121a295.887 295.887 0 0 0 82.679-22.082m58.793-114.875h32.135c-.277 16.212-3.533 32.136-10.662 46.841-5.922 12.219-14.16 22.902-23.898 32.234v-50.789h2.425v-28.286Zm32.158-2.47h-32.158v-66.723h17.404c8.999 21.025 14.725 44.111 14.754 66.723Z" fill="#3437FF"/><path opacity=".1" d="M436.087 134.648h-19.459v25.215h19.459v-25.215Zm0 52.266h-19.459v5.806h19.459v-5.806Zm0 8.27h-19.459v16.939h19.459v-16.939Zm0 43.996h-19.459v25.215h19.459V239.18Zm0 52.266h-19.459v25.215h19.459v-25.215Zm0 71.618c.191 0 .381 0 .578.04-.191 0-.381 0-.578-.034v5.858h-19.459v-25.216h19.459v19.352Zm0 32.909v19.472a296.968 296.968 0 0 1-19.459-2.245v-17.227h19.459Zm-96.885-122.799h-83.395v1.852h83.395v-1.852Zm0 4.317h-83.395v7.099h83.395v-7.099Zm0 30.369h-83.395v11.416h83.395V307.86Zm0 34.686v11.416h-65.229a266.313 266.313 0 0 1-8.393-6.66c-1.916-1.576-3.81-3.192-5.732-4.756h79.354Zm0 34.681v11.445h-6.886a308.147 308.147 0 0 1-22.767-11.422l29.653-.023Zm161.179-174.303h-16.417v16.414h16.417v-16.414Zm-355.457-76.478h-16.417v16.414h16.417v-16.414Zm0 38.127h-16.417v16.414h16.417v-16.414Zm0 38.126h-16.417v16.414h16.417v-16.414Zm0 38.12h-16.417v16.414h16.417v-16.414Zm0 38.126h-16.417v16.414h16.417v-16.414Zm0 38.126h-16.417v16.414h16.417v-16.414Zm418.129-114.147h-16.417v16.414h16.417v-16.414Zm-62.672 40.486h-16.417v16.414h16.417V243.41Zm62.672 0h-16.417v16.414h16.417V243.41Zm-62.672 40.481h-16.417v16.414h16.417v-16.414Zm62.672 0h-16.417v16.414h16.417v-16.414Zm-62.672 40.487h-16.417v16.414h16.417v-16.414Zm62.672 0h-16.417v16.414h16.417v-16.414Zm-62.672 40.487h-16.417v16.413h16.417v-16.413Zm62.672 0h-16.417v16.413h16.417v-16.413Zm-79.089 51.065v-10.585h16.412v9.079l-16.412 1.506ZM46.515 172.191v9.39h56.177v-9.39H46.515Zm5.593 8.801H47.49v-8.207h4.618v8.207Zm5.594 0h-4.618v-8.207h4.618v8.207Zm5.582 0h-4.618v-8.207h4.618v8.207Zm5.593 0H64.26v-8.207h4.618v8.207Zm5.588 0h-4.618v-8.207h4.618v8.207Zm5.593 0H75.44v-8.207h4.618v8.207Zm5.594 0h-4.618v-8.207h4.618v8.207Zm5.588 0h-4.618v-8.207h4.618v8.207Zm5.588 0H92.21v-8.207h4.618v8.207Zm5.593 0h-4.618v-8.207h4.618v8.207Zm-55.906 18.532v9.39h56.177v-9.39H46.515Zm5.593 8.802H47.49v-8.207h4.618v8.207Zm5.594 0h-4.618v-8.207h4.618v8.207Zm5.582 0h-4.618v-8.207h4.618v8.207Zm5.593 0H64.26v-8.207h4.618v8.207Zm5.588 0h-4.618v-8.207h4.618v8.207Zm5.593 0H75.44v-8.207h4.618v8.207Zm5.594 0h-4.618v-8.207h4.618v8.207Zm5.588 0h-4.618v-8.207h4.618v8.207Zm5.588 0H92.21v-8.207h4.618v8.207Zm5.593 0h-4.618v-8.207h4.618v8.207Zm-55.906 18.538v9.384h56.177v-9.384H46.515Zm5.593 8.79H47.49v-8.207h4.618v8.207Zm5.594 0h-4.618v-8.207h4.618v8.207Zm5.582 0h-4.618v-8.207h4.618v8.207Zm5.593 0H64.26v-8.207h4.618v8.207Zm5.588 0h-4.618v-8.207h4.618v8.207Zm5.593 0H75.44v-8.207h4.618v8.207Zm5.594 0h-4.618v-8.207h4.618v8.207Zm5.588 0h-4.618v-8.207h4.618v8.207Zm5.588 0H92.21v-8.207h4.618v8.207Zm5.593 0h-4.618v-8.207h4.618v8.207Zm-55.906 18.543v9.385h56.177v-9.385H46.515Zm5.593 8.796H47.49v-8.219h4.618v8.219Zm5.594 0h-4.618v-8.219h4.618v8.219Zm5.582 0h-4.618v-8.219h4.618v8.219Zm5.593 0H64.26v-8.219h4.618v8.219Zm5.588 0h-4.618v-8.219h4.618v8.219Zm5.593 0H75.44v-8.219h4.618v8.219Zm5.594 0h-4.618v-8.219h4.618v8.219Zm5.588 0h-4.618v-8.219h4.618v8.219Zm5.588 0H92.21v-8.219h4.618v8.219Zm5.593 0h-4.618v-8.219h4.618v8.219Zm-55.635 18.526c.22.889.479 1.766.745 2.638v-2.043h4.617v8.201h-2.476c.07.196.144.398.225.577h52.818v-9.373h-55.93Zm10.968 8.796h-4.618v-8.201h4.618v8.201Zm5.582 0h-4.618v-8.201h4.618v8.201Zm5.593 0h-4.618v-8.201h4.618v8.201Zm5.588 0h-4.618v-8.201h4.618v8.201Zm5.593 0h-4.618v-8.201h4.618v8.201Zm5.594 0h-4.618v-8.201h4.618v8.201Zm5.588 0h-4.618v-8.201h4.618v8.201Zm5.587 0h-4.618v-8.201h4.618v8.201Zm5.594 0h-4.618v-8.201h4.618v8.201Zm-42.676 18.538c.15.184.289.392.433.577h3.054v3.942l.987 1.154v-5.119h4.618v8.276h-1.9c.185.19.364.392.578.577h35.114v-9.407H59.797Zm14.697 8.83h-4.618v-8.242h4.618v8.242Zm5.593 0H75.47v-8.242h4.618v8.242Zm5.594 0h-4.618v-8.242h4.618v8.242Zm5.588 0H86.65v-8.242h4.618v8.242Zm5.587 0h-4.618v-8.242h4.618v8.242Zm5.594 0h-4.618v-8.242h4.618v8.242Zm-11.834 18.503c.531.3 1.068.577 1.605.872v-.289h4.618v2.603c.335.144.652.3.981.45v-3.053h4.618v4.998c.088.04.179.073.272.098v-5.679H90.616Zm345.466 26.878h.577-.577Zm-37.1-86.67c.11.37.208.739.306 1.102a17.37 17.37 0 0 0-.306-1.102ZM122.983 106.298v2.459h25.785v-2.47l-25.785.011Zm313.104 256.766h.578-.578Zm-37.105-86.67c.11.37.208.739.306 1.102a17.37 17.37 0 0 0-.306-1.102Zm37.1 86.67h.577-.577Zm-37.1-86.67c.11.37.208.739.306 1.102a17.37 17.37 0 0 0-.306-1.102ZM507.649 498c31.064 0 56.247-4.044 56.247-9.032 0-4.989-25.183-9.033-56.247-9.033s-56.247 4.044-56.247 9.033c0 4.988 25.183 9.032 56.247 9.032Zm-253.677-9.032c31.064 0 56.247-4.044 56.247-9.033 0-4.988-25.183-9.032-56.247-9.032-31.065 0-56.247 4.044-56.247 9.032 0 4.989 25.182 9.033 56.247 9.033Z" fill="#3437FF"/><path d="M318.727 241.102a.306.306 0 0 0-.086-.15c-.86-.849-11.828-16.357-11.828-16.357s-.577-1.731-1.513-3.982c.3-.388.525-.828.664-1.298.051-.2.087-.402.11-.606 0-.064.046-.116.063-.179a4.377 4.377 0 0 0-.057-2.378 4.138 4.138 0 0 1-.237.577 9.614 9.614 0 0 0-.866-1.928c-1.454-2.504-3.533-4.617-5.062-7.058a19.094 19.094 0 0 1-2.604-12.674v.681c.058-.873.174-1.74.347-2.597.241-.976.563-1.93.964-2.851 1.374-3.146 3.596-5.887 4.947-9.044a17.167 17.167 0 0 0 1.027-3.307c.476-1.895.65-3.852.514-5.801 0 .462-.075.924-.144 1.38a18.783 18.783 0 0 0-5.305-12.507c-4.716-4.738-11.487-6.579-17.964-7.549a16.445 16.445 0 0 1-7.562-2.886c-2.488-1.61-5.703-1.997-8.613-1.645a14.21 14.21 0 0 0-8.768 4.335c-3.077 3.382-4.41 8.172-8.001 11.023-2.176 1.732-4.935 2.54-7.469 3.717-2.534 1.177-4.93 2.886-5.744 5.414v-.052.144l-.035.092c-.842 2.99.786 6.032 1.634 9.015.883 3.088.941 6.349.987 9.541.064 3.901.121 7.808.058 11.716a82.658 82.658 0 0 1-.196 4.617 24.157 24.157 0 0 0-3.966 1.593c-1.293.842-6.13 6.065-6.13 6.065l-9.462 36.141.127.144-.127.491.48-.11c1.339 1.443 5.339 5.552 9.657 8.115l.404 7.087s.485 7.111 7.025 10.048c.15 2.465.618 12.472-1.547 16.437a18.463 18.463 0 0 0-2.043 9.396s.756 6.014-.104 9.177a14.999 14.999 0 0 0-.11 6.441v1.899c0 6.4.075 26.912 0 29.232-.11 2.741 0 43.286 0 43.286s-.537 20.263-2.257 25.752c-1.72 5.489-1.287 23.663-1.287 23.663s-1.08 21.648 2.736 25.919c0 .191-.035.387-.04.577v.272c-.047 1.645.271 3.393 1.685 3.93 2.886 1.108 6.702 4.432 7.423 5.385.722.952 4.919 3.324 10.391 2.689a78.296 78.296 0 0 1 10.327-.473s2.159-.392 1.46-3.076c-.45-1.674-2.135-4.248-3.336-5.939.219.058.433.104.635.144l.208.041h.161c.089.005.177.005.266 0h.115c.108.009.216.009.323 0 1.449-.139 6.852 2.378 7.816 4.04.964 1.662 4.364 2.926 6.927 3.243 1.524.185 5.369-.127 8.596-.542a31.592 31.592 0 0 0 4.814-.878c.762-.288.923-1.211.704-2.25a5.855 5.855 0 0 0-1.997-3.371c-.935-.664-2.171-2.412-3.083-3.844l-.242-.386c1.61-1.536 4.52-6.557 5.403-7.596 1.074-1.264-1.732-47.487-1.732-47.487v-23.172l4.301-21.932 3.007-11.606 2.58-17.522s4.514-20.466 3.123-22.474c0-.041-1.154-21.112-2.366-26.174-.526-2.256-.393-7.335-.081-12.275a2.422 2.422 0 0 0 .577-2.528 5.193 5.193 0 0 0-.335-.86v-.266a39.76 39.76 0 0 1 7.776-2.643c4.3-.843 3.227-3.059 3.227-3.059s.969-1.899 1.61-3.059c.641-1.16.11-11.398 0-12.241-.04-.341-.306-2.222-.612-4.357a73 73 0 0 1 5.132-3.354c3.723-2.204 2.886-4.53 2.58-5.136Zm-56.108 146.323s-3.227 8.23-1.934 10.337c1.293 2.106-.214 9.927-.214 9.927l-1.079 11.606s-3.008 21.527-1.934 26.589c.843 3.971 1.155 15.831 1.253 20.777a1.51 1.51 0 0 0-.214.104l-.144.075c.496-1.945.289-5.881-2.176-13.8l-.208-32.706s-.381-37.78 2.603-42.005c2.985-4.224 4.041-11.398 4.041-11.398s-.647 10.348-1.068 13.089c-.421 2.742 1.074 7.405 1.074 7.405Zm-6.009 81.296c-.029.07-.064.139-.087.202l-.162-.207c.083.008.166.01.249.005Z" fill="url(#undraw_doctors_hwty 1__b)"/><path d="M289.519 481.684c-1.669.641-10.714 1.732-13.243 1.426-2.528-.306-5.876-1.587-6.828-3.261-.953-1.674-6.292-4.202-7.724-4.04a5.19 5.19 0 0 1-1.732-.243 21.308 21.308 0 0 1-2.886-1.108 5.35 5.35 0 0 1 .064-2.193c.033-.145.075-.287.127-.427a3.808 3.808 0 0 1 1.939-2.158l.208-.098c.4-.173.818-.301 1.247-.381 4.537-.872 23.257.877 23.257.877s.525.941 1.247 2.106c.9 1.443 2.124 3.204 3.048 3.867a5.919 5.919 0 0 1 1.968 3.394c.22 1.021.058 1.956-.692 2.239Z" fill="#fff"/><path opacity=".1" d="M289.519 481.684c-1.669.641-10.708 1.732-13.237 1.426-2.528-.306-5.876-1.593-6.834-3.261-.959-1.668-6.287-4.202-7.718-4.04-1.432.161-4.618-1.351-4.618-1.351s-.497-2.308.947-3.884l2.886 2.049s7.723 2.395 9.155 4.617c1.431 2.222 4.041 3.463 7.81 3.688 2.817.185 9.288-.912 12.319-1.46.202.998.046 1.933-.71 2.216Z" fill="#000"/><path d="M261.886 484.628a76.653 76.653 0 0 0-10.195.479c-5.42.635-9.559-1.732-10.28-2.707-.722-.976-4.457-4.271-7.326-5.425-1.402-.543-1.731-2.309-1.668-3.96v-.271c.053-1.045.208-2.083.462-3.099l22.461-.479 1.945 2.637.3.404 1.184 1.611s.536.704 1.241 1.731c1.189 1.732 2.851 4.288 3.296 5.979.71 2.707-1.42 3.1-1.42 3.1Z" fill="#fff"/><path opacity=".1" d="M261.886 484.628a76.653 76.653 0 0 0-10.195.479c-5.414.635-9.559-1.732-10.275-2.707-.715-.976-4.462-4.3-7.331-5.414-1.402-.542-1.731-2.308-1.668-3.959 1.605.375 4.976 1.333 6.298 3.001 1.732 2.228 4.832 5.974 9.236 6.21 3.556.191 12.214-.444 15.389-.698.681 2.695-1.454 3.088-1.454 3.088Z" fill="#000"/><path opacity=".1" d="M259.213 469.656c-.26 1.928-1.062 2.448-1.639 2.563a1.1 1.1 0 0 1-.428 0 1.332 1.332 0 0 1-.225-.035s-20.169 4.456-24.244.849a2.823 2.823 0 0 1-.289-.3 16.15 16.15 0 0 1 .462-3.1l22.461-.479 1.945 2.638a3.815 3.815 0 0 1 1.94-2.159l.017.023Zm25.976 2.505c-.45.497-.825.779-1.062.681-1.062-.427-9.767-1.91-12.532-.635-2.765 1.276-12.122.208-12.122.208s0-1.108-.052-2.886c.4-.172.818-.3 1.247-.38 4.537-.872 23.257.877 23.257.877s.548.969 1.264 2.135Z" fill="#000"/><path d="m298.362 341.611-2.551 17.626-2.968 11.682L288.595 393v23.375s2.759 46.506 1.697 47.776c-1.062 1.269-5.097 8.501-6.159 8.08-1.062-.422-9.767-1.911-12.532-.641-2.765 1.27-12.122.213-12.122.213s-.214-18.047-1.276-23.143 1.91-26.756 1.91-26.756l1.063-11.676s1.489-7.861.213-9.985c-1.276-2.124 1.911-10.388 1.911-10.388s-1.484-4.681-1.056-7.44c.427-2.758 1.056-13.164 1.056-13.164s-1.056 7.226-4.006 11.468-2.575 42.258-2.575 42.258l.208 32.897c5.317 17.418 0 15.716 0 15.716s-20.169 4.461-24.244.848c-4.076-3.613-2.91-26.352-2.91-26.352s-.421-18.261 1.276-23.778c1.697-5.518 2.234-25.908 2.234-25.908s-.11-40.776 0-43.529c.081-2.308 0-22.976 0-29.434v-1.91l2.436-6.049 28.862-3.613h13.808s20.781 4.883 22.928 6.99a.485.485 0 0 1 .116.127c1.391 2.037-3.071 22.629-3.071 22.629Z" fill="#3437FF"/><path opacity=".1" d="M263.317 434.197s6.35 15.288 9.346 16.35c2.996 1.062-9.346-16.35-9.346-16.35Zm2.35 22.508s21.439 1.062 21.225 3.4c-.214 2.337-21.225-3.4-21.225-3.4Zm-28.684-6.112c.849.803 16.354 2.309 15.078 3.775-1.276 1.466-13.802 4.317-13.802 4.317l-1.276-8.092Zm-2.545-26.375c0 .635 3.186 20.385 4.04 21.233.855.848 7.857 1.697 7.857 1.697l-11.897-22.93Z" fill="#000"/><path d="M257.556 154.265c-3.042 3.399-4.358 8.218-7.902 11.092-2.153 1.732-4.878 2.557-7.383 3.735-2.506 1.177-4.988 2.972-5.732 5.638-.832 3.001.773 6.066 1.616 9.067.872 3.105.924 6.349.976 9.598.057 3.93.121 7.861.051 11.791-.103 6.124-.611 12.53-3.861 17.718 11.735 3.735 24.215 4.242 36.522 4.721 2.365.169 4.741.109 7.095-.178a61.006 61.006 0 0 0 6.043-1.53 46.39 46.39 0 0 1 12.042-1.541c1.772 0 3.579.11 5.287-.352 1.709-.462 3.354-1.645 3.816-3.353.41-1.535-.191-3.169-.976-4.548-1.431-2.516-3.463-4.617-4.999-7.099a19.511 19.511 0 0 1-1.252-17.539c1.362-3.169 3.556-5.928 4.895-9.102a19.193 19.193 0 0 0-3.868-20.361c-4.658-4.768-11.343-6.615-17.739-7.596a16.11 16.11 0 0 1-7.469-2.885c-2.453-1.616-5.634-2.009-8.509-1.651a13.894 13.894 0 0 0-8.653 4.375Z" fill="#3F3D56"/><path opacity=".1" d="M299.078 188.155a19.187 19.187 0 0 0-1.472 8.813 18.859 18.859 0 0 1 1.472-6.257c1.356-3.168 3.55-5.927 4.889-9.101a18.416 18.416 0 0 0 1.345-8.38 17.955 17.955 0 0 1-1.345 5.829c-1.339 3.174-3.533 5.927-4.889 9.096Zm-59.774 4.455c.034 2.263.069 4.531.075 6.793 0-3.116-.029-6.227-.075-9.338-.046-3.226-.104-6.493-.976-9.604-.577-1.974-1.431-3.976-1.732-5.967-.513 2.828.947 5.696 1.732 8.518.872 3.082.93 6.372.976 9.598Zm63.203 28.113c-1.732.467-3.51.363-5.282.352a46.328 46.328 0 0 0-12.036 1.512 61.275 61.275 0 0 1-6.044 1.524 36.47 36.47 0 0 1-7.1.184c-11.891-.467-23.95-.969-35.339-4.369a19.672 19.672 0 0 1-1.154 2.194c11.735 3.728 24.215 4.242 36.516 4.721 2.367.169 4.745.107 7.1-.185a59.648 59.648 0 0 0 6.021-1.518 46.293 46.293 0 0 1 12.013-1.529c1.772 0 3.573.109 5.281-.358 1.709-.468 3.354-1.639 3.816-3.348a4.571 4.571 0 0 0-.058-2.401c-.513 1.616-2.101 2.742-3.734 3.221Z" fill="#000"/><path d="M285.408 213.884c-.427.958-2.228 9.234-2.655 10.082-.427.849-2.759 14.429-2.973 15.191-.213.762-15.372-3.186-15.372-3.186l-9.126-7.647-9.38-9.333s-.277-8.42 6.632-11.121c.47-.185.952-.335 1.443-.45 8.382-2.015 7.539-27.495 7.539-27.495l17.202 7.427s-3.186 14.868-3.077 17.736c.029.964.785 1.564 1.773 1.928 1.526.434 3.115.606 4.698.508 0 0 3.724 5.407 3.296 6.36Z" fill="#FBBEBE"/><path d="m316.205 241.806 2.441.641s1.807 2.747-2.441 5.304a73.46 73.46 0 0 0-7.753 5.419l-12.555 3.821-2.418-7.59 11.683-8.865 11.043 1.27Z" fill="#3437FF"/><path opacity=".1" d="m316.205 241.806 2.441.641s1.807 2.747-2.441 5.304a73.46 73.46 0 0 0-7.753 5.419l-12.555 3.821-2.418-7.59 11.683-8.865 11.043 1.27Z" fill="#000"/><path d="m224.578 249.136-4.883 4.778s8.808 10.193 15.585 10.828c6.777.634 11.147-7.751 11.147-7.751l-5.865-9.235-15.984 1.38Z" fill="#3437FF"/><path opacity=".1" d="m224.578 249.136-4.883 4.778s8.808 10.193 15.585 10.828c6.777.634 11.147-7.751 11.147-7.751l-5.865-9.235-15.984 1.38Zm46.388-52.561c9.382 0 16.988-7.604 16.988-16.985s-7.606-16.986-16.988-16.986c-9.383 0-16.989 7.605-16.989 16.986s7.606 16.985 16.989 16.985Z" fill="#000"/><path d="M270.966 195.3c9.382 0 16.988-7.605 16.988-16.986 0-9.38-7.606-16.985-16.988-16.985-9.383 0-16.989 7.605-16.989 16.985 0 9.381 7.606 16.986 16.989 16.986Z" fill="#FBBEBE"/><path opacity=".1" d="M301.444 320.909a54.911 54.911 0 0 0-11.366 2.545c-6.349 2.113-56.108.035-56.801 0v-1.91l2.436-6.048 28.863-3.613h13.807s20.781 4.882 22.929 6.989c.086 1.27.132 2.037.132 2.037Zm-16.036-107.025c-.427.958-2.228 9.234-2.655 10.082-.427.849-2.759 14.429-2.973 15.191-.213.762-15.372-3.186-15.372-3.186l-9.126-7.647-9.38-9.333s-.277-8.42 6.632-11.121l17.156 19.721 7.724-20.575c1.526.434 3.115.606 4.698.508 0 0 3.724 5.407 3.296 6.36Z" fill="#000"/><path d="m269.69 228.226-17.56-20.2a7.357 7.357 0 0 0-6.967-.514c-3.931 1.703-8.815 3.082-10.09 3.93-1.276.849-6.056 6.101-6.056 6.101l14.235 37.231-6.269 24.523s.958 12.53-1.483 17.095a18.757 18.757 0 0 0-2.021 9.448s.745 6.054-.104 9.234a15.386 15.386 0 0 0-.109 6.476s50.445 2.124 56.812 0a54.386 54.386 0 0 1 11.366-2.545s-1.154-21.239-2.309-26.335c-1.154-5.097.959-24.523.959-24.523l-1.38-20.812 8.278-21.354s-4.485-13.69-9.161-15.07c0 0-8.491-2.02-10.298-2.972-1.807-.952-7.118-1.806-7.118-1.806l-2.788.935-7.937 21.158Z" fill="#3437FF"/><path opacity=".1" d="m294.19 246.632-36.951-2.512a1.696 1.696 0 0 0-1.808 1.578l-3.967 58.33a1.696 1.696 0 0 0 1.578 1.808l36.951 2.512a1.698 1.698 0 0 0 1.808-1.578l3.967-58.33a1.697 1.697 0 0 0-1.578-1.808Z" fill="#000"/><path d="m295.462 245.365-36.951-2.512a1.698 1.698 0 0 0-1.808 1.578l-3.967 58.33a1.697 1.697 0 0 0 1.578 1.808l36.951 2.512a1.696 1.696 0 0 0 1.808-1.578l3.967-58.33a1.697 1.697 0 0 0-1.578-1.808Z" fill="#3F3D56"/><path d="m294.243 249.938-35.143-2.39-3.611 53.102 35.142 2.389 3.612-53.101Z" fill="#fff"/><path opacity=".1" d="m291.092 263.492-28.707-2.01-.56 8 28.707 2.009.56-7.999Zm-1.039 31.788-4.556-.31-.283 4.169 4.555.31.284-4.169Zm-4.494-10.061-23.319-1.586-.283 4.169 23.319 1.586.283-4.169Z" fill="#000"/><path d="m289.893 247.952-24.281-1.65-.435 6.408 24.28 1.651.436-6.409Z" fill="#3F3D56"/><path opacity=".1" d="m289.893 247.952-24.281-1.65-.435 6.408 24.28 1.651.436-6.409Zm-18.079 71.786s-.213 31.431-8.497 49.478c0 0 9.987-23.784 9.987-24.736 0-.953 5.518-10.937 4.04-13.909-1.477-2.973-5.53-10.833-5.53-10.833Zm.451-145.671a11.805 11.805 0 0 1 1.922-7.913 9.746 9.746 0 0 0 7.539 10.273 1.276 1.276 0 0 1-.364-1.397c1.183 1.339 2.09 2.927 3.429 4.104s3.348 1.881 4.924 1.045c2.141-1.155 2.164-4.196 1.61-6.563a30.814 30.814 0 0 0-7.094-13.545 9.392 9.392 0 0 0-7.447-3.786c-3.278-.254-6.684.034-9.622 1.506a25.565 25.565 0 0 0-4.618 3.226l-8.082 6.591a7.672 7.672 0 0 0-1.962 2.066 5.66 5.66 0 0 0-.612 2.165 11.662 11.662 0 0 0 5.437 11.006 8.612 8.612 0 0 1 5.155-8.08 2.246 2.246 0 0 1 .803 1.668l1.703-3.036a3.345 3.345 0 0 1 1.154-1.368c1.051-.577 2.361.104 3.256.918.894.814 1.766 1.829 2.967 1.956l.046-4.519" fill="#000"/><path d="M272.265 173.432a11.817 11.817 0 0 1 1.922-7.919c-.52 4.617 2.961 9.385 7.544 10.273a1.266 1.266 0 0 1-.363-1.39c1.183 1.339 2.089 2.92 3.429 4.103 1.339 1.183 3.348 1.882 4.924 1.039 2.141-1.154 2.164-4.196 1.61-6.556a30.817 30.817 0 0 0-7.094-13.546 11.366 11.366 0 0 0-3.966-3.082 11.529 11.529 0 0 0-3.463-.704c-3.279-.254-6.685.029-9.623 1.5a25.921 25.921 0 0 0-4.618 3.232l-8.082 6.591a7.602 7.602 0 0 0-1.962 2.067 5.615 5.615 0 0 0-.612 2.164 11.65 11.65 0 0 0 5.437 11 8.616 8.616 0 0 1 5.155-8.08 2.264 2.264 0 0 1 .803 1.668l1.697-3.024a3.311 3.311 0 0 1 1.154-1.368c1.051-.577 2.361.104 3.256.918.895.814 1.766 1.824 2.967 1.956l.046-4.524" fill="#3F3D56"/><path d="M280.311 280.567c-1.483-.75-26.016 3.076-26.016 3.076s-4.041-1.154-13.808-2.759c-9.767-1.604-10.39-11.15-10.39-11.15l-1.068-19.109 3.296-2.886 14.119 9.234s.22 4.669 0 5.512c-.138.577-.508 1.264-.473 1.731a.578.578 0 0 0 .473.52c.959.242 14.016 2.355 14.016 2.355s30.265-2.072 37.81 8.12a7.675 7.675 0 0 1 1.333 2.516c1.87 6.966-17.947 3.504-19.292 2.84Z" fill="#FBBEBE"/><path opacity=".1" d="M299.62 277.768c-1.154.513-1.87.883-1.87.883s-10.829-.318-16.913-2.522c-6.084-2.205-13.479-1.813-13.479-1.813s-25.353-4.363-21.422-10.059a.579.579 0 0 0 .474.519c.958.243 14.015 2.355 14.015 2.355s30.265-2.072 37.81 8.12a7.666 7.666 0 0 1 1.385 2.517Z" fill="#000"/><path d="M310.149 244.143s1.49 10.51 1.594 11.364c.103.854.64 11.145 0 12.317-.641 1.171-1.594 3.076-1.594 3.076s1.062 2.227-3.186 3.082c-4.249.854-9.236 3.393-9.236 3.393s-10.835-.317-16.885-2.545c-6.049-2.228-13.484-1.806-13.484-1.806s-32.182-5.524-18.374-12.265c13.808-6.741 23.575 2.39 23.575 2.39l15.395-.953s5.738-3.509 7.331-3.185a5.901 5.901 0 0 0 3.29-.531l.11-11.151 11.464-3.186Z" fill="#FBBEBE"/><path opacity=".1" d="m232.082 218.345-3.082-.162-9.34 36.36s10.085-2.551 14.431 0c4.347 2.551 12.319 3.077 12.319 3.077l-2.973-28.985-11.355-10.29Z" fill="#000"/><path d="m232.082 217.704-3.082-.161-9.34 36.36s10.085-2.551 14.431 0c4.347 2.551 12.319 3.076 12.319 3.076l-2.973-28.984-11.355-10.291Z" fill="#3437FF"/><path opacity=".1" d="m302.72 225.669 4.243.958s10.835 15.583 11.683 16.454c.849.872-4.04 4.04-6.055 4.04-2.015 0-11.891 1.155-14.76 3.821-2.869 2.666-1.674-10.752-1.674-11.058 0-.306 3.561-8.773 3.561-8.773l3.002-5.442Z" fill="#000"/><path d="m302.72 225.034 4.243.952s10.835 15.612 11.683 16.461c.849.848-4.04 4.04-6.055 4.04-2.015 0-11.891 1.154-14.76 3.82-2.869 2.667-1.674-10.752-1.674-11.058 0-.306 3.585-8.801 3.585-8.801l2.978-5.414Z" fill="#3437FF"/><g opacity=".1" fill="#000"><path opacity=".1" d="M274.158 165.565a8.523 8.523 0 0 1 .029-1.327 11.8 11.8 0 0 0-1.778 4.357v1.339-.046.317c0 .935 0 1.876-.029 2.811h-.081v.433c0-.15 0-.294-.029-.444-1.154-.185-1.98-1.155-2.84-1.928-.86-.773-2.205-1.512-3.255-.918a3.306 3.306 0 0 0-1.155 1.368l-1.714 3.024a2.226 2.226 0 0 0-.803-1.662 8.603 8.603 0 0 0-5.154 8.08 11.725 11.725 0 0 1-5.479-9.194 11.67 11.67 0 0 0 5.479 10.464 8.61 8.61 0 0 1 5.154-8.08 2.256 2.256 0 0 1 .803 1.668l1.697-3.024a3.305 3.305 0 0 1 1.154-1.368c1.051-.577 2.361.104 3.256.917.895.814 1.766 1.824 2.967 1.957 0-1.478.015-2.951.046-4.421a11.748 11.748 0 0 1 1.732-4.323Z"/><path opacity=".1" d="M272.207 171.377c.029-.392.075-.785.133-1.154l.063-1.593a11.717 11.717 0 0 0-.196 2.747Zm17.514 6.885c-1.576.843-3.585.139-4.924-1.038-1.34-1.178-2.246-2.765-3.429-4.104a1.272 1.272 0 0 0 .363 1.397c-.115 0-.225-.058-.334-.087 1.154 1.328 2.072 2.886 3.4 4.04 1.327 1.154 3.348 1.882 4.924 1.039 1.575-.843 2.026-2.816 1.887-4.738-.104 1.512-.646 2.822-1.887 3.491Zm-8.359-3.843a9.812 9.812 0 0 1-7.193-8.577c-.329 4.531 3.089 9.073 7.562 9.944a1.273 1.273 0 0 1-.369-1.367Z"/></g><path d="M558.579 268.747s-2.274-.317-2.274-3.625c0-3.307-1.628-9.499-1.628-9.499s-1.408-10.776-3.354-12.484c-1.945-1.708-4.444-11.739-4.444-11.739s-.428-5.442-1.299-6.614c-.872-1.172-2.049-4.04-3.787-8.132-1.737-4.092-8.965-6.897-8.965-6.897s-13.097-7.595-16.809-10.071a5.69 5.69 0 0 1-.947-.716c-.646-.842-3.463-.86-3.463-.86-.295-1.864-.578-3.999-.67-5.933v-.623a19.971 19.971 0 0 0 8.78-10.862c.069-.219.127-.444.191-.669a1.878 1.878 0 0 0 1.154-1.016c.329-.745.341-1.61.756-2.309.485-.819 1.409-1.258 2.136-1.87 1.836-1.564 2.309-4.19 2.222-6.573-.057-1.94-.369-3.89-.248-5.812 0-.162 0-.323.035-.485.035-.283.075-.577.127-.854.283-1.431.9-2.782 1.247-4.202.346-1.419.381-3.018-.427-4.242-1.184-1.795-3.649-2.152-5.813-2.308-2.454-.208-4.618.057-6.217-1.98a21.81 21.81 0 0 0-2.471-2.978c-.323-.3-3.463-2.222-3.463-2.343a14.038 14.038 0 0 0-9.814-.756c-1.633.473-3.163 1.246-4.82 1.633-3.555.843-7.654-.069-10.679 1.968-1.685 1.154-2.695 2.996-3.642 4.779-.77 1.47-1.551 2.941-2.344 4.415-1.281 2.418-2.574 4.877-3.111 7.555a12.87 12.87 0 0 0-.214 1.772v.917c0 .197 0 .393.035.577.035.185 0 .237.04.358.041.122.052.393.087.577.035.185.104.514.173.762 0 .11.069.214.104.324.035.109.127.386.202.577.075.19.081.202.127.3.087.202.191.398.294.577.047.075.081.15.127.225a6.5 6.5 0 0 0 .532.773c1.229 1.541 3.053 2.522 4.398 3.965v.647a19.747 19.747 0 0 0 9.051 16.102c0 .219.029.444.041.67a32.985 32.985 0 0 1-.064 5.136 2.438 2.438 0 0 0-1.916-.854 2.78 2.78 0 0 0-.739.063l-.052-.04v.052c-1.27.312-2.834 1.633-4.329 5.39 0 0-4.549 5.126-8.013 4.912-3.463-.214-12.231 5.339-12.231 5.339s-8.555 5.546-10.391 11.202a78.21 78.21 0 0 1-3.689 9.396l-10.604 21.77-1.945 17.314s1.08 7.682.866 8.859c-.214 1.177 4.439 11.739 4.439 11.739s15.372 26.999 21.653 28.384l.45-.312c.27.137.555.241.848.312l1.293-.906a13.52 13.52 0 0 1-.103 3.042c-.861 2.672.329 20.067 1.841 23.478 1.512 3.411.976 48.139.976 48.139l-.214 3.942s0 .127.052.346l-.052.935.156.081a11.169 11.169 0 0 1-.156 3.763c-.543 1.732-.762 6.62-.762 6.62s-4.329 27.634-2.274 33.186c2.055 5.552 3.792 11.635 3.792 11.635s2.165 6.926.104 8.08-7.897 3.203-6.708 6.083c1.097 2.667 5.259 9.812 5.877 10.856l-.052.577-.849 9.194c.138 1.214.467 2.399.976 3.509.929 2.009 2.73 4.081 6.171 3.856a31.532 31.532 0 0 0 1.893-.191c6.286-.848 14.021-3.653 14.021-3.653a5.575 5.575 0 0 1-1.091-.906 3.187 3.187 0 0 1-.964-2.309c.093-1.679-3.042-9.65-3.827-11.618l-.179-.438s7.147-7.474 5.957-14.088c0 0-7.908-4.618-5.304-7.157 2.603-2.539 7.255-9.811 7.255-9.811s.214-27.213 0-31.27a33.731 33.731 0 0 1 .399-8.449c.086-.416.19-.826.3-1.236 3.604.544 7.242.82 10.887.826 1.331 0 2.678-.027 4.041-.081 0 .385.017.8.052 1.247.3 6.741.86 18.566 1.316 22.958.646 6.291 4.219 23.265 4.219 23.265s-6.817 4.369 1.189 15.156c0 0 0 3.901-.531 4.473a48.891 48.891 0 0 0-1.368 5.638c-.334 2.026-.473 4.087.07 5.148 1.298 2.551 9.091 2.344 9.091 2.344a1.13 1.13 0 0 1 .191-.029 11.114 11.114 0 0 1 8.249 2.482c2.961 2.377 14.194 1.339 20.284.577 2.384-.306 3.977-.577 3.977-.577.077-.27.104-.552.081-.832-.063-1.494-1.235-4.773-9.178-7.699 0 0-7.47-5.021-7.366-9.396h-1.027c.542-.017.923-.017.923-.017s-2.926-10.671-1.731-11.543c1.194-.871-2.384-12.697-2.384-12.697s-2.05-19.854-2.165-21.239c.008-1.194.19-2.38.542-3.52l-.542-10.891s-.104-3.619 0-4.796a22.611 22.611 0 0 0-.243-3.053c-.052-.404-.103-.826-.161-1.241 2.799-.71 4.618-1.362 4.618-1.362l-.323-37.89c2.378-4.617 2.816-14.751 2.805-21.931 0-4.617-.208-8.034-.208-8.034l3.25-5.304s.75-6.348-.439-7.739c-.525-.629-.288-1.282.145-1.818.227-.187.469-.357.721-.508a1.008 1.008 0 0 1-.075-.127c.227-.19.468-.361.722-.514 0 0-1.155-1.789-.121-2.545a37.912 37.912 0 0 0 2.493 1.558 9.397 9.397 0 0 1-.092.664l.277-.577 1.022.577s5.091-10.14 4.981-11.63c-.109-1.489 3.464-7.791 3.464-7.791s.433-3.313 2.384-4.698c1.951-1.385 1.512-11.422 1.512-11.422s.543-5.228 1.842-7.358c1.298-2.13-1.161-5.027-1.161-5.027Zm-97.416-4.45.098 2.418c-.577-.929-.993-1.593-.993-1.593l.895-.825Z" fill="url(#undraw_doctors_hwty 1__c)"/><path d="m545.857 312.287-1.247 5.309s-9.986-5.107-11.782-11.571c-1.795-6.464 3.008-8.929 3.008-8.929l9.311 3.936.71 11.255Z" fill="#fff"/><path opacity=".1" d="m545.857 312.287-1.247 5.309s-9.986-5.107-11.782-11.571c-1.795-6.464 3.008-8.929 3.008-8.929l9.311 3.936.71 11.255Z" fill="#000"/><path d="M489.812 492.996s-9.236 3.394-15.586 3.821c-3.371.225-5.143-1.841-6.055-3.832a11.702 11.702 0 0 1-.958-3.463l.837-9.148.438-4.865L481.979 472l1.91 5.846.179.439c.762 1.956 3.845 9.886 3.752 11.543a3.17 3.17 0 0 0 .941 2.308c.313.33.666.619 1.051.86Zm63.058-4.652c.024.28-.003.562-.08.831 0 0-19.754 3.29-23.795 0a10.677 10.677 0 0 0-3.887-2.094 10.684 10.684 0 0 0-4.402-.347s-7.643.208-8.918-2.308c-.531-1.057-.393-3.105-.064-5.12a49.355 49.355 0 0 1 1.339-5.61l.306-.242 1.819-1.46 21.289-.629h.161c-.104 4.351 7.222 9.344 7.222 9.344 7.798 2.885 8.947 6.146 9.01 7.635Z" fill="#fff"/><path opacity=".1" d="M552.876 488.344c.021.28-.009.562-.086.831 0 0-19.754 3.29-23.789 0a10.709 10.709 0 0 0-8.295-2.441s-7.648.208-8.924-2.308c-.525-1.057-.393-3.105-.064-5.125 2.944.294 7.591 1.027 9.415 2.781 2.759 2.655 7.435 5.31 10.298 5.524 2.263.138 15.719.565 21.445.738Zm-63.064 4.652s-9.236 3.394-15.586 3.821c-3.371.225-5.143-1.841-6.055-3.832 2.355.79 5.617 1.616 7.331.86 2.032-.907 9.236-1.484 13.277-1.732a5.22 5.22 0 0 0 1.033.883Z" fill="#000"/><path d="M503.516 219.494c-7.62-2.961-17.422-12.744-14.974-17.315a10.33 10.33 0 0 0 .952-3.67c.158-1.727.181-3.464.07-5.195a71.306 71.306 0 0 0-1.022-8.455s23.788.537 22.403 4.04c-.404 1.033-.473 2.817-.358 4.808.115 1.991.398 4.259.698 6.169.41 2.615.832 4.618.832 4.618s-1.461 2.037-2.309 2.147c-.849.109 4.641 17.095-6.292 12.853Z" fill="#CF6F80"/><path opacity=".1" d="m484.045 478.256-.179.196c-7.112-8.599-15.712 2.124-15.712 2.124l-.128-.231.439-4.865 13.49-3.509 1.911 5.846.179.439Zm52.605-6.285s-5.196-.104-7.966 2.343c-2.771 2.447-16.163.525-15.586 0 .168-.267.271-.569.3-.883l1.818-1.46 21.289-.629c.081.404.145.629.145.629Z" fill="#000"/><path d="M492.894 404.439c-.386.957-.68 1.948-.877 2.961a33.89 33.89 0 0 0-.398 8.403c.213 4.04 0 31.114 0 31.114s-4.566 7.22-7.118 9.765c-2.551 2.546 5.195 7.116 5.195 7.116 1.155 6.586-5.841 14.019-5.841 14.019-7.112-8.599-15.713 2.118-15.713 2.118s-4.676-8.08-5.842-10.965c-1.166-2.886 4.566-4.877 6.581-6.055 2.014-1.177-.104-8.08-.104-8.08s-1.697-6.054-3.718-11.577c-2.02-5.523 2.229-33.013 2.229-33.013s.219-4.888.744-6.591c.262-1.229.315-2.493.156-3.74a25.475 25.475 0 0 0-.104-1.01c-.029-.242-.052-.346-.052-.346l.081-.138 2.886-5.379s23.281 8.01 21.895 11.398Zm43.756 66.897s-5.196-.11-7.966 2.309c-2.771 2.418-16.163.531-15.586 0s.525-4.456.525-4.456c-7.856-10.729-1.154-15.081-1.154-15.081s-3.504-16.881-4.139-23.143c-.445-4.369-.993-16.16-1.287-22.838-.127-2.886-.202-4.877-.202-4.877l6.361-1.264.825-.161 15.482-3.111s.427 2.886.716 5.246a23.12 23.12 0 0 1 .237 3.042c-.099 1.154 0 4.773 0 4.773l.531 10.827a12.453 12.453 0 0 0-.531 3.503c.109 1.385 2.124 21.129 2.124 21.129s3.504 11.786 2.309 12.634c-1.195.849 1.755 11.468 1.755 11.468Z" fill="#3437FF"/><path opacity=".1" d="M510.945 188.916c-.404 1.034-.473 2.817-.358 4.808a19.78 19.78 0 0 1-21.023-.392 71.297 71.297 0 0 0-1.022-8.456s23.788.537 22.403 4.04Z" fill="#000"/><path d="M520.129 176.173a19.745 19.745 0 0 1-19.511 19.981 19.747 19.747 0 0 1-19.984-19.508v-.473a19.75 19.75 0 0 1 19.753-19.75 19.75 19.75 0 0 1 19.753 19.75h-.011Z" fill="#CF6F80"/><path opacity=".1" d="M503.516 219.494c-7.62-2.961-17.422-12.744-14.974-17.315a10.33 10.33 0 0 0 .952-3.67l10.431 8.576 6.454 5.292 4.906-12.483c.41 2.614.832 4.617.832 4.617s-1.461 2.037-2.309 2.147c-.849.11 4.641 17.078-6.292 12.836Z" fill="#000"/><path d="m530.49 257.395-8.71 146.306-11.36.744-29.423-84.834 4.826-100.718 1.022-21.279 13.08 10.741 6.454 5.292 5.051-12.853 9.392 8.184 9.668 48.417Z" fill="#3437FF"/><path opacity=".1" d="M492.894 404.439c-.386.957-.68 1.948-.877 2.961a83.744 83.744 0 0 1-23.84-7.439l-.156-.081.052-.929v-.485l2.886-5.379s23.321 7.964 21.935 11.352Zm20.498 2.984a58.478 58.478 0 0 1-6.384.733c-.127-2.886-.202-4.877-.202-4.877l6.396-1.293.19 5.437Zm16.856-3.463c-4.104 1.068-10.448 2.268-16.117 1.518l-.081-3.653 15.482-3.111s.41 2.863.716 5.246Z" fill="#000"/><path opacity=".1" d="M514.027 406.148c-23.667 4.04-45.342-7.544-45.342-7.544l.207-3.924s.537-44.492-.952-47.903c-1.489-3.411-2.65-20.685-1.807-23.323.843-2.637-3.077-42.46-3.077-42.46l-.634-16.16-23.258-9.448 10.391-21.66a78.154 78.154 0 0 0 3.613-9.35c1.807-5.627 10.194-11.15 10.194-11.15s8.601-5.518 12.001-5.31c3.4.208 7.857-4.883 7.857-4.883 3.29-8.385 6.269-4.617 6.269-4.617 0 .404 0 0-.162 1.241-1.154 9.206 18.668 38.294 18.951 38.813l1.911 45.975 1.91 58.182 1.928 63.521Z" fill="#000"/><path d="M513.392 406.148c-23.667 4.04-45.348-7.544-45.348-7.544l.213-3.924s.531-44.492-.958-47.903c-1.489-3.411-2.649-20.702-1.801-23.363.849-2.661-3.094-42.443-3.094-42.443l-.641-16.16-23.251-9.448 10.39-21.66a79.548 79.548 0 0 0 3.614-9.344c1.807-5.61 10.223-11.139 10.223-11.139s8.601-5.518 11.995-5.31c3.394.208 7.874-4.877 7.874-4.877 3.296-8.385 6.927-4.617 6.927-4.617 0 .404-.347.577-.162 1.241 2.54 8.929 18.033 38.294 18.316 38.813l1.911 45.975 1.87 58.211 1.922 63.492Z" fill="#fff"/><path opacity=".1" d="M507.014 239.769c-2.546-1.062-16.03-16.455-16.03-16.455v-3.503c-.491-1.154-3.412-.45-5.773.358l1.016-21.28 1.155.959c2.522 8.922 19.355 39.407 19.632 39.921Z" fill="#000"/><path d="M507.655 238.499c-2.552-1.068-16.036-16.454-16.036-16.454v-3.51c-.491-1.154-3.406-.45-5.773.358l.999-21.256 1.154.952c2.546 8.911 19.373 39.39 19.656 39.91Z" fill="#fff"/><path opacity=".1" d="M468.685 315.259c.317 0 16.457-1.697 16.457-1.697s9.773 19.219 9.132 23.888c-.641 4.669-1.801 8.813-5.732 8.08-3.931-.733-21.156.577-21.156.577l1.299-30.848Z" fill="#000"/><path d="M468.044 313.983c.323 0 16.463-1.696 16.463-1.696s9.767 19.247 9.132 23.865c-.635 4.617-1.807 8.813-5.732 8.08-3.925-.733-21.162.577-21.162.577l1.299-30.826Z" fill="#fff"/><path d="M480.207 304.986s14.812 7.964 15.129 10.388c.318 2.424-7.539-1.062-9.236-1.489a22.061 22.061 0 0 0-3.4-.531l-11.32.306 8.827-8.674Z" fill="#CF6F80"/><path opacity=".1" d="M502.875 240.761a1.558 1.558 0 1 0 .002-3.116 1.558 1.558 0 0 0-.002 3.116Z" fill="#000"/><path d="M502.875 240.126a1.558 1.558 0 1 0 .002-3.116 1.558 1.558 0 0 0-.002 3.116Z" fill="#3F3D56"/><path opacity=".1" d="M505.744 308.218a1.558 1.558 0 1 0 0-3.116 1.558 1.558 0 0 0 0 3.116Z" fill="#000"/><path d="M505.744 307.577a1.557 1.557 0 1 0 0-3.116 1.558 1.558 0 1 0 0 3.116Z" fill="#3F3D56"/><path opacity=".1" d="M504.434 274.49a1.559 1.559 0 1 0-.002-3.118 1.559 1.559 0 0 0 .002 3.118Z" fill="#000"/><path d="M504.434 273.855a1.559 1.559 0 1 0-.002-3.118 1.559 1.559 0 0 0 .002 3.118Z" fill="#3F3D56"/><path d="M540.361 313.031s1.063 1.593 0 2.309c-1.062.715.104 2.551.104 2.551s-2.649 1.546-1.483 2.949c1.166 1.402.427 7.699.427 7.699l-3.186 5.304s.19 3.399.202 7.993c0 7.169-.422 17.246-2.754 21.84l.312 37.693s-11.158 4.08-20.498 2.834l-1.386-60.485s2.021-34.3 2.765-40.879c.436-3.416.614-6.86.531-10.302 0 0-.317-10.296-1.385-15.069 0 0-1.154-20.708-1.27-26.439-.052-2.742.093-10.741.254-18.348.179-8.316.381-16.16.381-16.16l-2.107-16.673s2.107-.208 2.742.634c.285.266.594.504.924.71 3.642 2.459 16.492 10.02 16.492 10.02s7.111 2.828 8.814 6.879c1.703 4.052 2.886 6.926 3.712 8.08.825 1.154 1.276 6.58 1.276 6.58s2.447 9.984 4.358 11.675c1.91 1.691 3.284 12.426 3.284 12.426l-16.884 13.274s-1.484 22.082-1.801 22.936c-.318.854 6.176 19.969 6.176 19.969Z" fill="#fff"/><path d="M541.002 313.031s1.056 1.593 0 2.309c-1.056.715.098 2.551.098 2.551s-2.649 1.546-1.483 2.949c1.166 1.402.427 7.699.427 7.699l-3.175 5.304s.191 3.399.208 7.993c0 7.169-.422 17.246-2.754 21.84l.318 37.693s-11.158 4.08-20.498 2.834l-1.38-60.485s2.015-34.3 2.765-40.879c.437-3.416.612-6.86.526-10.302 0 0-.318-10.296-1.38-15.069 0 0-1.155-20.708-1.276-26.439-.052-2.742.093-10.741.254-18.348.179-8.316.381-16.16.381-16.16l-2.782-16.899s2.782 0 3.423.86c.282.269.591.507.924.71 3.636 2.459 16.486 10.02 16.486 10.02s7.094 2.828 8.826 6.879c1.731 4.052 2.886 6.926 3.711 8.08.826 1.154 1.276 6.58 1.276 6.58s2.448 9.984 4.358 11.675c1.911 1.691 3.291 12.426 3.291 12.426l-16.885 13.274s-1.483 22.082-1.807 22.936c-.323.854 6.148 19.969 6.148 19.969Z" fill="#fff"/><path opacity=".1" d="m520.781 221.421 1.53 4.444-8.03 8.08c.179-8.316.381-16.16.381-16.16l-2.782-16.893s2.782 0 3.423.86c.282.269.592.507.924.71l6.823 19.675-2.269-.716Z" fill="#000"/><path d="m520.129 220.146 1.53 4.438-8.024 8.08c.173-8.317.381-16.16.381-16.16l-2.788-16.899s2.788 0 3.423.86c.283.267.592.505.923.71l6.864 19.692-2.309-.721Z" fill="#fff"/><path opacity=".1" d="M520.129 176.173a19.688 19.688 0 0 1-.97 6.124.819.819 0 0 1-.623-.15c-.156-5.195-2.708-10.077-5.854-14.227a15.061 15.061 0 0 0-3.175-3.29 6.22 6.22 0 0 0-4.306-1.218c-1.732.237-3.261 1.414-5.01 1.565-2.309.19-4.376-1.409-6.668-1.484a6.543 6.543 0 0 0-4.9 2.274 13.366 13.366 0 0 0-2.627 4.866 28.497 28.497 0 0 0-1.466 8.403c-.029 1.616-.185 3.642-1.686 4.23a8.599 8.599 0 0 0-2.176-6.579l-.034-.041v-.473a19.75 19.75 0 0 1 19.753-19.75 19.75 19.75 0 0 1 19.753 19.75h-.011Z" fill="#000"/><path d="M508.584 144.817a13.597 13.597 0 0 0-9.594-.75c-1.599.473-3.106 1.24-4.728 1.627-3.463.837-7.504-.069-10.477 1.957-1.651 1.154-2.643 2.978-3.567 4.755l-2.309 4.392c-1.258 2.407-2.528 4.854-3.054 7.503-.525 2.649-.207 5.616 1.472 7.751 1.218 1.547 3.031 2.522 4.359 3.983a8.656 8.656 0 0 1 2.17 6.596c1.501-.577 1.651-2.614 1.686-4.23a28.497 28.497 0 0 1 1.466-8.403 13.372 13.372 0 0 1 2.626-4.866 6.54 6.54 0 0 1 4.901-2.279c2.309.08 4.381 1.679 6.667 1.483 1.732-.144 3.267-1.322 5.011-1.558a6.189 6.189 0 0 1 4.306 1.217 14.79 14.79 0 0 1 3.169 3.29c3.152 4.156 5.709 9.015 5.859 14.227.652.473 1.593-.15 1.917-.889.323-.739.334-1.605.744-2.309.474-.813 1.38-1.252 2.09-1.864 1.801-1.552 2.251-4.167 2.182-6.539-.069-2.372-.531-4.779-.081-7.11.271-1.426.883-2.771 1.218-4.185.335-1.414.375-3.001-.416-4.219-1.154-1.783-3.584-2.141-5.703-2.308-2.407-.208-4.56.058-6.095-1.968a22.62 22.62 0 0 0-2.425-2.967c-.317-.306-3.394-2.21-3.394-2.337Z" fill="#512E4E"/><path opacity=".1" d="m445.826 266.525-6.027-11.145-1.911 17.199s1.063 7.642.849 8.813c-.214 1.172 4.352 11.676 4.352 11.676s15.084 26.866 21.243 28.245l20.781-14.867-5.519-7.007s-1.91-.744-2.389 0c0 0-10.252-17.625-11.309-18.895-1.056-1.27-.854-3.827-.854-3.827s-1.593-1.696-1.062-3.289c.531-1.593-3.048-7.111-3.048-7.111l3.29-3.076-18.396 3.284Z" fill="#000"/><path d="m440.117 254.105-1.594 1.275-1.91 17.199s1.062 7.642.848 8.813c-.213 1.172 4.359 11.676 4.359 11.676s15.077 26.866 21.236 28.245l20.816-14.867-5.524-7.007s-1.911-.744-2.39 0c0 0-10.246-17.625-11.308-18.895-1.062-1.27-.849-3.827-.849-3.827s-1.593-1.696-1.062-3.289c.531-1.593-3.082-7.111-3.082-7.111l3.29-3.076-22.83-9.136Z" fill="#fff"/><path opacity=".1" d="M538.982 321.504c1.154 1.402.427 7.705.427 7.705l-3.186 5.269s.19 3.405.202 7.999l-5.357 1.674a3.185 3.185 0 0 1-4.133-3.14l.929-29.78 12.497 4.773c-1.062.738.104 2.55.104 2.55s-2.649 1.547-1.483 2.95Z" fill="#000"/><path d="M539.617 320.869c1.154 1.397.427 7.699.427 7.699l-3.175 5.275s.19 3.399.208 7.993l-5.455 1.703a3.121 3.121 0 0 1-2.811-.49 3.108 3.108 0 0 1-1.23-2.575l.929-29.884 12.492 4.784c-1.068.739.098 2.551.098 2.551s-2.649 1.541-1.483 2.944Z" fill="#fff"/><path d="M543.761 306.66s-.848 5.419-2.972 5.736c-2.125.318-3.077 8.767-5.196 8.473-2.118-.294-.715-7.861-.64-9.327.075-1.466-2.309-7.537-.531-8.917 1.777-1.379 7.434 0 7.434 0l1.905 4.035Z" fill="#CF6F80"/><path opacity=".1" d="m548.252 264.932 4.001-8.08s1.599 6.158 1.599 9.448 2.228 3.613 2.228 3.613 2.442 2.886 1.155 4.992c-1.288 2.107-1.802 7.324-1.802 7.324s.422 9.979-1.489 11.358c-1.911 1.38-2.338 4.675-2.338 4.675s-3.504 6.262-3.394 7.751c.11 1.489-4.883 11.572-4.883 11.572s2.441-12.53-11.788-17.944c0 0-.11-4.247.953-5.413 1.062-1.166 2.718-1.732 1.679-7.595-1.039-5.864-.3-12.934-.3-14.348 0-1.414 3.187-10.227 3.187-10.227l11.192 2.874Z" fill="#000"/><path d="m550.03 255.698 3.498 1.154s1.599 6.158 1.599 9.448 2.229 3.613 2.229 3.613 2.441 2.886 1.154 4.992c-1.287 2.107-1.807 7.324-1.807 7.324s.427 9.979-1.483 11.358c-1.911 1.38-2.309 4.675-2.309 4.675s-3.504 6.262-3.394 7.751c.109 1.489-4.89 11.572-4.89 11.572s2.442-12.53-11.787-17.944c0 0-.104-4.247.958-5.413 1.062-1.166 2.719-1.732 1.68-7.595-1.039-5.864-.3-12.934-.3-14.348 0-1.414 3.186-10.227 3.186-10.227l11.666-6.36Z" fill="#fff"/><path opacity=".1" d="M472.748 465.126s5.577-3.503 9.236-.958c3.66 2.545-9.236.958-9.236.958Zm43.34-10.833s4.936-.635 9.08 3.826c4.145 4.462-9.08-3.826-9.08-3.826Zm7.21-279.113c-.71.618-1.622 1.051-2.096 1.865-.404.698-.415 1.564-.738 2.308-.324.745-1.265 1.362-1.923.889-.15-5.194-2.707-10.071-5.853-14.227a14.784 14.784 0 0 0-3.169-3.284 6.207 6.207 0 0 0-4.312-1.223c-1.732.237-3.256 1.414-5.005 1.564-2.309.19-4.381-1.408-6.673-1.483a6.513 6.513 0 0 0-4.895 2.274 13.367 13.367 0 0 0-2.626 4.865 28.503 28.503 0 0 0-1.466 8.403c-.035 1.61-.185 3.619-1.674 4.219.034.428.034.859 0 1.287 1.506-.577 1.656-2.614 1.691-4.23a28.542 28.542 0 0 1 1.466-8.404 13.355 13.355 0 0 1 2.627-4.865 6.546 6.546 0 0 1 4.895-2.28c2.309.081 4.387 1.68 6.673 1.484 1.731-.145 3.267-1.322 5.004-1.559a6.205 6.205 0 0 1 4.312 1.218 14.767 14.767 0 0 1 3.169 3.29c3.146 4.155 5.704 9.015 5.854 14.226.658.474 1.599-.15 1.922-.888.323-.739.335-1.605.739-2.309.473-.814 1.385-1.252 2.095-1.864 1.801-1.553 2.251-4.167 2.182-6.539v-.219c-.115 2.066-.664 4.161-2.199 5.482Zm-42.618-.404c-1.322-1.46-3.135-2.441-4.353-3.988a8.368 8.368 0 0 1-1.679-4.721 8.89 8.89 0 0 0 1.679 5.997c1.218 1.547 3.031 2.522 4.353 3.982a8.658 8.658 0 0 1 2.182 5.148 8.651 8.651 0 0 0-2.182-6.418Zm45.937-17.429c-.34 1.414-.947 2.758-1.224 4.184a13.409 13.409 0 0 0-.179 2.92c.019-.552.079-1.101.179-1.645.277-1.425.884-2.77 1.224-4.184.196-.78.26-1.588.191-2.389a8.105 8.105 0 0 1-.191 1.114Z" fill="#000"/><path opacity=".1" d="M76.618 484.154c31.064 0 56.247-4.044 56.247-9.032s-25.183-9.032-56.247-9.032-56.247 4.044-56.247 9.032 25.183 9.032 56.247 9.032Z" fill="#3437FF"/><path d="M78.43 302.089h-3.619v81.475h3.62v-81.475Z" fill="#535461"/><path d="m101.18 383.322-.231 3.67-.317 5.195-.133 2.158-.323 5.194-.139 2.159-.318 5.194-3.653 58.909a9.973 9.973 0 0 1-9.958 9.361H67.134a9.967 9.967 0 0 1-9.958-9.401l-3.654-58.909-.317-5.195-.133-2.158-.329-5.194-.133-2.159-.317-5.194-.231-3.671a5.195 5.195 0 0 1 5.16-5.488h38.803a5.197 5.197 0 0 1 3.77 1.652 5.206 5.206 0 0 1 1.385 3.877Z" fill="#3F3D56"/><path d="m100.949 386.986-.323 5.183H52.61l-.323-5.183h48.662Zm-.456 7.342-.317 5.182h-47.11l-.323-5.182h47.75Zm-.456 7.347-.318 5.177H53.522l-.323-5.177h46.838Z" fill="#9D9CB5"/><path d="M46.786 332.631c21.081 15.248 29.86 39.096 29.86 39.096s-25.398-.872-46.485-16.12C9.074 340.359.283 316.529.283 316.529s25.399.854 46.503 16.102Z" fill="#3437FF"/><path d="M.283 316.529s26.363 14.63 34.82 26.745c8.456 12.114 41.52 28.464 41.52 28.464" stroke="#535461" stroke-width="2" stroke-miterlimit="10"/><path d="M60.369 301.915c11.475 8.294 16.255 21.274 16.255 21.274s-13.854-.473-25.3-8.767c-11.448-8.293-16.256-21.279-16.256-21.279s13.83.473 25.3 8.772Z" fill="#3437FF"/><path d="M35.068 293.143s14.35 7.964 18.957 14.555c4.606 6.591 22.599 15.491 22.599 15.491" stroke="#535461" stroke-width="2" stroke-miterlimit="10"/><path d="M93.295 322.531c-13.179 14.481-15.967 33.405-15.967 33.405s18.582-4.559 31.749-19.046c13.167-14.486 15.966-33.405 15.966-33.405s-18.57 4.565-31.748 19.046Z" fill="#3437FF"/><path d="M125.055 303.491s-17.167 14.844-21.531 25.071c-4.364 10.227-26.196 27.374-26.196 27.374" stroke="#535461" stroke-width="2" stroke-miterlimit="10"/></g><defs><linearGradient id="undraw_doctors_hwty 1__b" x1="268.726" y1="482.238" x2="268.726" y2="148.851" gradientUnits="userSpaceOnUse"><stop stop-color="gray" stop-opacity=".25"/><stop offset=".54" stop-color="gray" stop-opacity=".12"/><stop offset="1" stop-color="gray" stop-opacity=".1"/></linearGradient><linearGradient id="undraw_doctors_hwty 1__c" x1="109838" y1="312437" x2="109838" y2="93918.1" gradientUnits="userSpaceOnUse"><stop stop-color="gray" stop-opacity=".25"/><stop offset=".54" stop-color="gray" stop-opacity=".12"/><stop offset="1" stop-color="gray" stop-opacity=".1"/></linearGradient><clipPath id="undraw_doctors_hwty 1__a"><path fill="#fff" d="M0 0h674v498H0z"/></clipPath></defs></svg>