<svg width="331" height="297" fill="none" xmlns="http://www.w3.org/2000/svg"><path d="M328.096 113.579a.58.58 0 0 1-.332-.104L167.166 1.679a2.913 2.913 0 0 0-3.326.005L4.398 113.474a.58.58 0 0 1-.667-.951L163.173.733a4.077 4.077 0 0 1 4.657-.007l160.598 111.796a.58.58 0 0 1-.332 1.057Z" fill="#3F3D56"/><path d="M13.51 117.542 165.66 4.829l153.305 120.733L173.5 211.758l-78.976-17.994-81.015-76.222Z" fill="#E6E6E6"/><path d="M101.19 264.998H26.024a3.527 3.527 0 0 1-2.486-1.027 3.509 3.509 0 0 1 2.486-5.994h75.166a3.508 3.508 0 0 1 3.516 3.511 3.503 3.503 0 0 1-2.17 3.244 3.53 3.53 0 0 1-1.346.266Zm-48.198-15.092H26.024a3.508 3.508 0 0 1-3.248-2.166 3.507 3.507 0 0 1 1.903-4.588 3.508 3.508 0 0 1 1.345-.266h26.968a3.508 3.508 0 0 1 3.248 2.166 3.507 3.507 0 0 1-1.903 4.588 3.508 3.508 0 0 1-1.345.266Z" fill="#8975FF"/><path d="M167.8 180.321a4.389 4.389 0 0 1-1.667-.326l-93.836-38.918V19.257a4.067 4.067 0 0 1 4.065-4.064H256.38a4.072 4.072 0 0 1 4.065 4.063v121.906l-.177.075-90.752 38.739a4.416 4.416 0 0 1-1.716.345Z" fill="#fff"/><path d="M167.8 180.611a4.687 4.687 0 0 1-1.777-.347l-94.016-38.993V19.256a4.357 4.357 0 0 1 4.356-4.353H256.38a4.36 4.36 0 0 1 4.355 4.353v122.097l-91.105 38.89a4.692 4.692 0 0 1-1.83.368Zm-94.631-40.116 93.297 38.695c.87.353 1.845.348 2.711-.016l90.397-38.587V19.257a3.195 3.195 0 0 0-3.194-3.193H76.363a3.198 3.198 0 0 0-3.194 3.192v121.239Z" fill="#3F3D56"/><path d="M326.935 112.418h-.116l-66.665 28.453-91.21 38.931a2.944 2.944 0 0 1-2.254.012L72.588 140.79 4.286 112.464l-.105-.046h-.116A4.068 4.068 0 0 0 0 116.481v176.456A4.068 4.068 0 0 0 4.065 297h322.87a4.072 4.072 0 0 0 4.065-4.063V116.481a4.068 4.068 0 0 0-4.065-4.063Zm2.904 180.519a2.906 2.906 0 0 1-2.904 2.902H4.065a2.905 2.905 0 0 1-2.904-2.902V116.481a2.906 2.906 0 0 1 2.794-2.902l68.633 28.465 93.655 38.843a4.136 4.136 0 0 0 3.159-.017l90.752-38.739 66.897-28.552a2.914 2.914 0 0 1 2.788 2.902v176.456Z" fill="#3F3D56"/><path d="M166.862 145.777a15.967 15.967 0 0 1-9.608-3.19l-.172-.129-36.184-27.691a16.072 16.072 0 0 1-5.754-16.903 16.067 16.067 0 0 1 13.421-11.782 16.087 16.087 0 0 1 11.887 3.174l23.438 17.964 55.386-72.2a16.063 16.063 0 0 1 10.653-6.153 16.081 16.081 0 0 1 11.886 3.18l-.345.467.353-.461a16.084 16.084 0 0 1 2.976 22.53l-65.148 84.923a16.08 16.08 0 0 1-12.789 6.271Z" fill="#8975FF"/></svg>