<svg width="707" height="293" fill="none" xmlns="http://www.w3.org/2000/svg"><g clip-path="url(#undraw_empty_street_sfxm 1__a)"><path d="M639.188 118.003h-21.369v67.852h21.369v-67.852Z" fill="#F2F2F2"/><path d="m653.299 173.091-51.972-56.717-104.321.875-63.284 56.543 1.279.754h-.457v117.612h218.615V174.546l.14-1.455Z" fill="#F2F2F2"/><path d="m601.382 116.495-64.927 69.827v105.836H653.16v-119.12l-51.778-56.543Z" fill="#E6E6E6"/><path d="M607.135 233.629h-23.834v19.325h23.834v-19.325Zm0-33.449h-23.834v19.018h23.834V200.18Z" fill="#3F3D56"/><path d="M607.135 233.629h-23.834v19.325h23.834v-19.325Zm0-33.449h-23.834v19.018h23.834V200.18Zm-105.92 28.322h-23.834v19.325h23.834v-19.325Zm0-33.45h-23.834v19.019h23.834v-19.019Z" fill="#fff"/><path d="M470.561 118.003h-21.369v67.852h21.369v-67.852Z" fill="#F2F2F2"/><path d="m484.673 173.091-51.972-56.717-104.321.875-63.284 56.543 1.279.754h-.457v117.612h218.616V174.546l.139-1.455Z" fill="#F2F2F2"/><path d="m432.755 116.495-64.927 69.827v105.836h116.705v-119.12l-51.778-56.543Z" fill="#E6E6E6"/><path d="M438.509 233.629h-23.834v19.325h23.834v-19.325Zm0-33.449h-23.834v19.018h23.834V200.18Z" fill="#3F3D56"/><path d="M438.509 233.629h-23.834v19.325h23.834v-19.325Zm0-33.449h-23.834v19.018h23.834V200.18Zm-105.92 28.322h-23.834v19.325h23.834v-19.325Zm0-33.45h-23.834v19.019h23.834v-19.019Z" fill="#fff"/><path d="M297.898 59.444h-28.553v90.668h28.553V59.444Z" fill="#F2F2F2"/><path d="m316.755 133.055-69.447-75.787-139.399 1.169-84.562 75.556 1.708 1.008h-.61v157.157h292.123V135.001l.187-1.946Z" fill="#F2F2F2"/><path d="m247.381 57.429-86.759 93.307v141.422h155.946V132.986l-69.187-75.557Z" fill="#E6E6E6"/><path d="M255.068 213.949H223.22v25.823h31.848v-25.823Zm0-44.696H223.22v25.413h31.848v-25.413Z" fill="#3F3D56"/><path d="M255.068 213.949H223.22v25.823h31.848v-25.823Zm0-44.696H223.22v25.413h31.848v-25.413Zm-141.535 37.845H81.685v25.822h31.848v-25.822Zm0-44.697H81.685v25.413h31.848v-25.413Z" fill="#fff"/><path d="M682.974 291.578H0v1.3h682.974v-1.3Zm-575.37-23.901c11.386 0 20.617-17.277 20.617-38.59 0-21.313-9.231-38.59-20.617-38.59-11.387 0-20.618 17.277-20.618 38.59 0 21.313 9.231 38.59 20.618 38.59Z" fill="#3F3D56"/><path d="M109.508 292.253c-8.258-45.448-.083-90.731 0-91.183l1.606.25c-.083.449-8.21 45.495.001 90.687l-1.607.246Z" fill="#E2E2E6"/><path d="m125.755 220.789-18.644 9.148.769 1.318 18.643-9.148-.768-1.318Zm-37.551 4.582-.77 1.318 18.642 9.153.769-1.318-18.641-9.153Z" fill="#E2E2E6"/><path d="M58.066 245.05c22.271 0 40.325-33.792 40.325-75.477S80.337 94.095 58.066 94.095c-22.27 0-40.325 33.793-40.325 75.478 0 41.685 18.054 75.477 40.325 75.477Z" fill="#E2E2E6"/><path d="M62.558 293c-16.129-88.773-.162-177.222 0-178.105l1.607.249c-.163.881-16.082 89.093 0 177.611l-1.607.245Z" fill="#3F3D56"/><path d="m93.936 153.972-36.465 17.893.768 1.318 36.466-17.893-.769-1.318Zm-74.181 8.963-.769 1.318 36.46 17.902.77-1.318-36.46-17.902Z" fill="#3F3D56"/><path d="M153.573 227.43c30.476 0 55.182-46.243 55.182-103.286 0-57.042-24.706-103.285-55.182-103.285-30.476 0-55.181 46.243-55.181 103.285 0 57.043 24.705 103.286 55.181 103.286Z" fill="#E2E2E6"/><path d="M160.016 293c-22.063-121.434-.223-242.424 0-243.632l1.606.25c-.223 1.205-22.016 121.958.001 243.137l-1.607.245Z" fill="#3F3D56"/><path d="M202.801 103.039 152.9 127.523l.769 1.318 49.9-24.484-.768-1.318Zm-101.796 12.266-.769 1.317 49.894 24.497.768-1.318-49.893-24.496Zm516.133 152.372c11.387 0 20.617-17.277 20.617-38.59 0-21.313-9.23-38.59-20.617-38.59s-20.617 17.277-20.617 38.59c0 21.313 9.23 38.59 20.617 38.59Z" fill="#3F3D56"/><path d="M615.234 292.253c8.257-45.448.083-90.731 0-91.183l-1.607.25c.083.449 8.211 45.495 0 90.687l1.607.246Z" fill="#E2E2E6"/><path d="m598.986 220.789-.768 1.318 18.643 9.148.769-1.318-18.644-9.148Zm37.552 4.582-18.642 9.153.769 1.318 18.642-9.153-.769-1.318Z" fill="#E2E2E6"/><path d="M666.675 245.05c22.271 0 40.325-33.792 40.325-75.477s-18.054-75.478-40.325-75.478c-22.271 0-40.325 33.793-40.325 75.478 0 41.685 18.054 75.477 40.325 75.477Z" fill="#E2E2E6"/><path d="M662.183 293c16.129-88.773.163-177.222 0-178.105l-1.606.249c.162.881 16.082 89.093-.001 177.611l1.607.245Z" fill="#3F3D56"/><path d="m630.805 153.972-.769 1.318 36.466 17.893.768-1.318-36.465-17.893Zm74.182 8.963-36.461 17.902.769 1.318 36.461-17.902-.769-1.318Z" fill="#3F3D56"/><path d="M571.168 227.43c30.476 0 55.182-46.243 55.182-103.286 0-57.042-24.706-103.285-55.182-103.285-30.476 0-55.182 46.243-55.182 103.285 0 57.043 24.706 103.286 55.182 103.286Z" fill="#E2E2E6"/><path d="M564.725 293c22.063-121.434.223-242.424 0-243.632l-1.606.25c.222 1.205 22.016 121.958-.001 243.137l1.607.245Z" fill="#3F3D56"/><path d="m521.941 103.039-.768 1.318 49.9 24.484.769-1.318-49.901-24.484Zm101.795 12.265-49.893 24.497.769 1.318 49.893-24.497-.769-1.318ZM417.743 65.947l6.523-4.785c-5.067-.513-7.149 2.022-8.001 4.028-3.959-1.508-8.268.469-8.268.469l13.05 4.346c-.658-1.614-1.804-3.021-3.304-4.058ZM258.327 23.7l6.523-4.785c-5.067-.512-7.149 2.023-8.001 4.029-3.959-1.508-8.268.468-8.268.468l13.05 4.346c-.658-1.613-1.804-3.02-3.304-4.057ZM518.353 4.852l6.522-4.785c-5.067-.513-7.149 2.022-8.001 4.029-3.958-1.508-8.268.468-8.268.468l13.051 4.346c-.659-1.613-1.805-3.02-3.304-4.058Zm13.169 279.207c-1.734 0-3.437.419-4.938 1.216-1.524-1.265-3.416-2.096-5.445-2.394a11.49 11.49 0 0 0-5.987.718c-1.878.766-3.473 2.016-4.592 3.597-1.119 1.582-1.713 3.427-1.71 5.313h32.556c-.178-2.294-1.296-4.441-3.13-6.009-1.834-1.568-4.247-2.44-6.754-2.441Zm-330.877 0c-1.734 0-3.437.419-4.938 1.216-1.524-1.265-3.416-2.096-5.445-2.394a11.49 11.49 0 0 0-5.987.718c-1.878.766-3.473 2.016-4.592 3.597-1.119 1.582-1.713 3.427-1.71 5.313h32.556c-.178-2.294-1.296-4.441-3.13-6.009-1.834-1.568-4.247-2.44-6.754-2.441Zm169.335 0c-1.734 0-3.437.419-4.938 1.216-1.524-1.265-3.416-2.096-5.445-2.394a11.49 11.49 0 0 0-5.987.718c-1.878.766-3.473 2.016-4.592 3.597-1.119 1.582-1.713 3.427-1.71 5.313h32.556c-.178-2.294-1.296-4.441-3.13-6.009-1.834-1.568-4.247-2.44-6.754-2.441Zm-35.731-21.333h-93.927v2.779h14.649v26.404H258v-26.404h57.055v26.404h3.03v-26.404h16.164v-2.779Zm.184-8.316h-93.926v2.78h93.926v-2.78Zm0-6.948h-93.926v2.779h93.926v-2.779Zm0-6.949h-93.926v2.78h93.926v-2.78Zm146.478 22.213h-93.927v2.779h14.649v26.404h3.03v-26.404h57.054v26.404h3.03v-26.404h16.164v-2.779Zm.185-8.316H387.17v2.78h93.926v-2.78Zm0-6.948H387.17v2.779h93.926v-2.779Zm0-6.949H387.17v2.78h93.926v-2.78Z" fill="#3F3D56"/></g><defs><clipPath id="undraw_empty_street_sfxm 1__a"><path fill="#fff" d="M0 0h707v293H0z"/></clipPath></defs></svg>