<svg width="577" height="471" fill="none" xmlns="http://www.w3.org/2000/svg"><g clip-path="url(#undraw_online_cv_re_gn0a 1__a)"><path d="M348.144 435.803c8.353 5.604 17.87 33.935 17.87 33.935s-29.792 1.945-38.143-3.657a18.21 18.21 0 0 1-7.729-11.61 18.232 18.232 0 0 1 7.769-18.703 18.182 18.182 0 0 1 13.674-2.699 18.19 18.19 0 0 1 6.559 2.734Z" fill="#F1F1F1"/><path d="m366.353 469.525-.466.373c-17.025-21.383-42.716-28.768-42.974-28.84l.161-.576c.259.073 26.131 7.506 43.279 29.043Z" fill="#fff"/><path d="M392.817 424.501c-.533 13.922-26.969 45.716-26.969 45.716s-23.916-33.734-23.385-47.652a25.235 25.235 0 0 1 8.057-17.54 25.177 25.177 0 0 1 35.606 1.369 25.24 25.24 0 0 1 6.691 18.107Z" fill="#F1F1F1"/><path d="m366.345 470.463-.777-.28c12.808-35.607 2.85-71.276 2.748-71.632l.794-.228c.103.358 10.136 36.275-2.765 72.14Z" fill="#fff"/><path d="M297.891 345.281H71.314a15.233 15.233 0 0 1-10.76-4.469 15.27 15.27 0 0 1-4.465-10.774V70.809a15.27 15.27 0 0 1 4.465-10.773 15.233 15.233 0 0 1 10.76-4.47h226.577a15.236 15.236 0 0 1 10.761 4.47 15.268 15.268 0 0 1 4.464 10.773v259.229a15.269 15.269 0 0 1-4.464 10.774 15.236 15.236 0 0 1-10.761 4.469Z" fill="#E6E6E6"/><path d="M287.303 332.577H81.902a13.523 13.523 0 0 1-9.555-3.969 13.556 13.556 0 0 1-3.964-9.565V81.804a13.557 13.557 0 0 1 3.964-9.565 13.525 13.525 0 0 1 9.555-3.969h205.401a13.526 13.526 0 0 1 9.555 3.969 13.558 13.558 0 0 1 3.964 9.565v237.239a13.557 13.557 0 0 1-3.964 9.565 13.524 13.524 0 0 1-9.555 3.969Z" fill="#fff"/><path d="M279.132 102.036H175.513a3.368 3.368 0 0 1-2.393-.989 3.388 3.388 0 0 1 1.098-5.521 3.38 3.38 0 0 1 1.295-.257h103.619a3.38 3.38 0 0 1 3.384 3.384 3.388 3.388 0 0 1-.991 2.394 3.368 3.368 0 0 1-2.393.989Zm0 13.369H175.513a3.381 3.381 0 0 1-3.38-3.384 3.383 3.383 0 0 1 3.38-3.383h103.619a3.383 3.383 0 0 1 0 6.767Zm-58.703 13.369h-44.916a3.381 3.381 0 0 1-3.38-3.384 3.383 3.383 0 0 1 3.38-3.383h44.916a3.383 3.383 0 0 1 0 6.767Zm46.208 53.995H103.054a3.379 3.379 0 0 1-3.384-3.383 3.388 3.388 0 0 1 2.09-3.127c.41-.17.85-.257 1.294-.257h163.583a3.379 3.379 0 0 1 3.126 2.088 3.39 3.39 0 0 1-.734 3.69 3.379 3.379 0 0 1-2.392.989Zm0 13.369H103.054a3.38 3.38 0 0 1-3.38-3.383 3.386 3.386 0 0 1 3.38-3.384h163.583a3.386 3.386 0 0 1 0 6.767Zm0 30.347H103.054a3.38 3.38 0 0 1-3.379-3.383 3.386 3.386 0 0 1 3.379-3.384h163.583a3.386 3.386 0 0 1 0 6.767Zm0 13.368H103.054a3.383 3.383 0 0 1 0-6.767h163.583c.896 0 1.756.357 2.389.991a3.387 3.387 0 0 1 0 4.785 3.373 3.373 0 0 1-2.389.991Zm0 30.347H103.054a3.383 3.383 0 0 1 0-6.766h163.583a3.383 3.383 0 0 1 0 6.766Zm0 13.369H103.054a3.383 3.383 0 0 1 0-6.767h163.583a3.386 3.386 0 0 1 0 6.767Z" fill="#E4E4E4"/><path d="M266.608 320.601h-44.916a3.38 3.38 0 0 1-3.38-3.384 3.383 3.383 0 0 1 3.38-3.383h44.916a3.377 3.377 0 0 1 3.379 3.383 3.381 3.381 0 0 1-3.379 3.384Z" fill="#8975FF"/><path d="M146.829 112.418a32.063 32.063 0 0 1-6.968 20.003 31.518 31.518 0 0 1-4.962 5.01 31.986 31.986 0 0 1-17.562 7.052 30.59 30.59 0 0 1-2.647.11 31.843 31.843 0 0 1-5.259-.434 26.472 26.472 0 0 1-1.812-.352 30.261 30.261 0 0 1-3.088-.863 31.99 31.99 0 0 1-11.276-6.562 28.995 28.995 0 0 1-2.391-2.387 32.185 32.185 0 0 1-7.255-29.688 32.177 32.177 0 0 1 7.28-13.482 32.129 32.129 0 0 1 12.684-8.579 32.096 32.096 0 0 1 29.493 3.784 32.15 32.15 0 0 1 10.114 11.504 32.19 32.19 0 0 1 3.649 14.884Z" fill="#E4E4E4"/><path d="M113.572 123.399c7.273 0 13.17-5.904 13.17-13.186s-5.897-13.186-13.17-13.186c-7.274 0-13.171 5.904-13.171 13.186s5.897 13.186 13.171 13.186Z" fill="#9E616A"/><path d="M128.234 103.786a5.339 5.339 0 0 0-.944-3.313l-.476-.676c-1.716-3.312-4.549-6.293-6.623-8.473-1.558-1.636-3.116-2.422-4.612-2.346a4.129 4.129 0 0 0-2.819 1.407 10.133 10.133 0 0 0-5.645 1.317 10.155 10.155 0 0 0-4.004 4.197c-6.306 3.332-4.425 13.172-4.404 13.276l1.523 2.56.173-.325c0-.007.02-.034.048-.089.296-.532 1.909-3.485 2.998-5.355a5.299 5.299 0 0 1 1.551-1.601 7.71 7.71 0 0 1 3.418-1.29l3.35-.435-1.268 1.905h9.125l3.508-.414c.352 1.442 3.137 7.038 3.474 7.714l.028.055.186.38 1.041-2.864c.607-1.813.736-3.753.372-5.63Z" fill="#2F2E41"/><path d="M95.488 138.211c.566-.745 3.495-4.223 10.235-6.065l3.571-3.982 14.315-2.284 7.285 4.03 8.967 2.512a31.554 31.554 0 0 1-4.962 5.009 31.989 31.989 0 0 1-17.562 7.052 31.94 31.94 0 0 1-7.905-.324 26.383 26.383 0 0 1-1.813-.352 30.007 30.007 0 0 1-3.088-.863 31.808 31.808 0 0 1-9.043-4.733c-.034-.021-.062-.048-.096-.069l.096.069ZM367.16 16.139H2.045A2.046 2.046 0 0 1 0 14.09V2.047A2.05 2.05 0 0 1 2.045 0H367.16a2.049 2.049 0 0 1 2.045 2.047v12.044a2.05 2.05 0 0 1-2.045 2.048Z" fill="#8975FF"/><path d="M11.869 10.389a2.905 2.905 0 0 0 2.903-2.907c0-1.606-1.3-2.907-2.903-2.907a2.905 2.905 0 0 0-2.904 2.907c0 1.605 1.3 2.907 2.904 2.907Zm11.021 0a2.905 2.905 0 0 0 2.903-2.907c0-1.606-1.3-2.907-2.903-2.907a2.905 2.905 0 0 0-2.904 2.907c0 1.605 1.3 2.907 2.904 2.907Zm11.021 0a2.905 2.905 0 0 0 2.904-2.907c0-1.606-1.3-2.907-2.904-2.907a2.905 2.905 0 0 0-2.903 2.907c0 1.605 1.3 2.907 2.903 2.907Zm322.451-4.908h-12.691a.941.941 0 0 1 0-1.882h12.691a.939.939 0 0 1 .948.941.948.948 0 0 1-.586.872.939.939 0 0 1-.362.07Zm0 3.529h-12.691a.938.938 0 0 1-.94-.94.943.943 0 0 1 .94-.942h12.691a.938.938 0 0 1 .948.941.948.948 0 0 1-.586.872.939.939 0 0 1-.362.07Zm0 3.53h-12.691a.94.94 0 0 1 0-1.882h12.691a.94.94 0 0 1 0 1.882Z" fill="#fff"/><path d="M456.601 323.878a5.909 5.909 0 0 1-.633-7.176 5.912 5.912 0 0 1 1.81-1.811l-4.839-20.439 10.241 3.746 3.025 18.835a5.947 5.947 0 0 1-1.765 7.694 5.933 5.933 0 0 1-7.839-.849Z" fill="#9E616A"/><path d="m431.974 238.227 4.109 10.581s-1.761 10.581 1.175 12.932c2.935 2.351 1.761 2.351 1.761 4.115a9.05 9.05 0 0 0 3.523 6.466c2.349 1.763 12.917 37.62 12.917 37.62h10.569a33.136 33.136 0 0 1 0-8.23c.587-4.114-1.762-14.695-2.936-16.459-1.174-1.763 0-4.114 0-7.641s-2.349-5.29-2.349-11.169c0-5.878-7.045-51.727-6.458-57.018.587-5.29-5.872-9.992-5.872-9.992h-5.871l-10.568 38.795Z" fill="#E4E4E4"/><path d="M459.001 461.781h-7.81l-3.716-30.163 11.528.001-.002 30.162Z" fill="#9E616A"/><path d="m460.994 469.36-25.186-.001v-.318a9.824 9.824 0 0 1 2.872-6.94 9.796 9.796 0 0 1 6.931-2.874h.001l4.6-3.495 8.584 3.495h2.198v10.133Z" fill="#2F2E41"/><path d="m387.548 461.557-7.335-2.687 6.86-29.604 10.827 3.965-10.352 28.326Z" fill="#9E616A"/><path d="m386.818 469.361-23.652-8.663.109-.3a9.81 9.81 0 0 1 5.078-5.529 9.79 9.79 0 0 1 7.496-.316l5.52-1.699 6.862 6.234 2.064.756-3.477 9.517Z" fill="#2F2E41"/><path d="M441.793 320.739s-5.284 25.863 3.523 23.512c8.807-2.351 5.284-24.688 5.284-24.688l-8.807 1.176Z" fill="#A0616A"/><path d="M403.042 299.284s-7.046 9.405-7.046 14.695c0 5.29-2.348 52.315-2.348 52.315s-17.827 70.027-14.304 73.553c3.522 3.527 15.852 7.054 17.614 5.291 1.761-1.764 17.24-74.141 17.24-74.141l14.678-39.384 13.504 56.431 1.175 59.957s14.678 3.526 17.614 1.175c2.935-2.351 3.523-59.369 0-79.355-3.523-19.985.587-65.835.587-65.835l-58.714-4.702Z" fill="#2F2E41"/><path d="M426.588 173.785c9.728 0 17.614-7.895 17.614-17.634s-7.886-17.634-17.614-17.634c-9.728 0-17.614 7.895-17.614 17.634s7.886 17.634 17.614 17.634Z" fill="#9E616A"/><path d="M404.216 199.355s5.072-7.565 15.053-17.558c5.284-1.763 14.44-.735 17.614 0 14.679 19.398 15.603 18.109 19.423 28.947.991 2.811 1.487 5.511 1.046 7.715-1.761 8.818 3.817 80.237 4.404 82.588.587 2.351 4.697 5.29.587 5.29s-66.347-2.351-65.173-4.114c1.175-1.764 7.046-102.868 7.046-102.868Z" fill="#E4E4E4"/><path opacity=".1" d="m401.528 301.447 17.66-38.902-8.83 41.373-8.83-2.471Z" fill="#000"/><path d="M421.259 172.488a30.01 30.01 0 0 0 4.532-4.164 10.08 10.08 0 0 0 2.455-5.551 6.113 6.113 0 0 0-2.329-5.42c-1.678-1.187-4.236-1.117-5.629.394.673-2.177 1.288-4.745-.075-6.571-1.24-1.661-3.553-1.944-5.552-2.491a16.097 16.097 0 0 1-9.3-6.937l3.393.703-.378-2.422 2.812.979.025-3.373 2.902 1.626a18.52 18.52 0 0 1 13.054-4.87 14.42 14.42 0 0 1 6.921 1.903 10.137 10.137 0 0 1 4.51 5.486c1.494-1.552 4.157-1.432 5.937-.219 1.78 1.213 2.825 3.243 3.543 5.275a22.795 22.795 0 0 1 .956 12.181 18.13 18.13 0 0 1-6.22 10.408 20.175 20.175 0 0 1-10.132 4.035 37.75 37.75 0 0 1-10.994-.47" fill="#2F2E41"/><path d="M396.029 323.802a5.906 5.906 0 0 0 1.507-4.769 5.913 5.913 0 0 0-2.684-4.218l4.838-20.439-10.241 3.746-3.025 18.835a5.952 5.952 0 0 0 1.766 7.693 5.929 5.929 0 0 0 7.839-.848Z" fill="#9E616A"/><path d="M410.088 199.355h-5.872s-6.458 4.703-5.871 9.993c.587 5.291-6.459 51.14-6.459 57.018s-2.348 7.642-2.348 11.169 1.174 5.878 0 7.641c-1.175 1.764-3.523 12.344-2.936 16.459a33.225 33.225 0 0 1 0 8.229h10.568s10.569-35.856 12.918-37.62a9.042 9.042 0 0 0 3.522-6.466c0-1.763-1.174-1.763 1.762-4.114 2.935-2.352 1.174-12.932 1.174-12.932l4.11-10.581-10.568-38.796Z" fill="#E4E4E4"/><path d="M576.179 471H254.105a.83.83 0 0 1-.582-.24.823.823 0 0 1 .582-1.403h322.074a.83.83 0 0 1 .582.24.82.82 0 0 1-.582 1.403Z" fill="#CACACA"/></g><defs><clipPath id="undraw_online_cv_re_gn0a 1__a"><path fill="#fff" d="M0 0h577v471H0z"/></clipPath></defs></svg>